<svg xmlns="http://www.w3.org/2000/svg" xmlns:xlink="http://www.w3.org/1999/xlink" width="500" zoomAndPan="magnify" viewBox="0 0 375 374.999991" height="500" preserveAspectRatio="xMidYMid meet" version="1.0"><defs><g/><clipPath id="4aa39fe232"><path d="M 84.171875 164.238281 L 291 164.238281 L 291 221 L 84.171875 221 Z M 84.171875 164.238281 " clip-rule="nonzero"/></clipPath><clipPath id="c2dfd0c143"><path d="M 106 191 L 145 191 L 145 227.988281 L 106 227.988281 Z M 106 191 " clip-rule="nonzero"/></clipPath><clipPath id="55ca4f6756"><path d="M 234 191 L 273 191 L 273 227.988281 L 234 227.988281 Z M 234 191 " clip-rule="nonzero"/></clipPath><clipPath id="331a5aec2b"><path d="M 94 102 L 286 102 L 286 182 L 94 182 Z M 94 102 " clip-rule="nonzero"/></clipPath><clipPath id="f2f3eeaccf"><path d="M 89.460938 108.964844 L 281.921875 98.402344 L 285.910156 171.042969 L 93.449219 181.605469 Z M 89.460938 108.964844 " clip-rule="nonzero"/></clipPath><clipPath id="13fa5ba3a1"><path d="M 89.460938 108.964844 L 281.921875 98.402344 L 292.445312 290.113281 L 99.984375 300.675781 Z M 89.460938 108.964844 " clip-rule="nonzero"/></clipPath></defs><g clip-path="url(#4aa39fe232)"><path fill="#444444" d="M 290.449219 205.609375 C 289.316406 203.890625 289.933594 201.652344 290.125 199.742188 C 290.09375 199.441406 290.519531 198.449219 290.007812 198.492188 C 287.707031 199.21875 285.25 199.929688 282.867188 200.042969 C 284.308594 199.234375 286.25 199.023438 287.460938 197.75 C 288.53125 196.703125 287.972656 197.035156 289.121094 197.222656 C 289.140625 197.023438 289 196.894531 288.890625 196.757812 C 288.027344 195.601562 288.105469 194.058594 288.050781 192.683594 C 288.058594 192.125 288.054688 191.570312 288.050781 191.011719 C 287.972656 190.621094 288.222656 189.695312 287.652344 189.660156 C 286.949219 189.71875 286.25 189.828125 285.550781 189.890625 C 285.273438 189.910156 285.101562 189.746094 285.035156 189.417969 C 285.058594 188.859375 286.703125 188.964844 287.15625 188.835938 C 287.308594 188.816406 287.425781 188.648438 287.382812 188.523438 C 286.792969 186.878906 286.257812 185.214844 285.601562 183.597656 C 285.042969 182.34375 285.3125 181.132812 285.90625 179.972656 C 286.304688 179.152344 285.34375 179.3125 284.894531 179.578125 C 282.964844 180.457031 280.769531 179.890625 278.75 179.644531 C 273.6875 178.910156 268.675781 177.707031 263.582031 177.269531 C 265.308594 176.972656 267.175781 177.644531 268.945312 177.605469 C 268.988281 177.609375 269.097656 177.550781 269.058594 177.492188 C 268.867188 177.300781 268.601562 177.269531 268.355469 177.195312 C 252.273438 172.214844 236.28125 166.4375 219.40625 164.863281 C 213.796875 164.226562 208.125 163.945312 202.507812 164.648438 C 188.773438 166.242188 176.078125 172.789062 164.621094 180.234375 C 162.976562 181.351562 160.964844 181.691406 159.011719 181.847656 C 155.820312 182.15625 152.628906 181.929688 149.429688 181.859375 C 140.746094 181.773438 132.015625 182.390625 123.5 184.132812 C 112.015625 186.570312 99.652344 188.472656 90.46875 196.402344 C 89.707031 196.957031 88.980469 197.722656 88.007812 197.859375 C 87.914062 197.839844 87.757812 197.761719 87.828125 197.640625 C 88.058594 197.175781 88.320312 196.734375 88.601562 196.300781 C 88.550781 196.152344 88.335938 196.285156 88.253906 196.339844 C 87.273438 197.300781 86.609375 198.441406 86.421875 199.820312 C 86.375 200.152344 86.324219 200.484375 86.292969 200.816406 C 86.222656 201.570312 86.242188 201.601562 86.96875 201.847656 C 88.601562 202.328125 87.441406 202.582031 86.566406 202.664062 C 86.28125 202.703125 86.203125 203.035156 86.234375 203.277344 C 86.332031 204.089844 86.425781 204.902344 86.53125 205.710938 C 86.609375 206.300781 87.578125 206.304688 88 206.574219 C 88.132812 206.628906 88.261719 206.714844 88.382812 206.792969 C 88.484375 206.847656 88.414062 207.007812 88.355469 207.039062 C 87.925781 207.160156 87.492188 207.261719 87.066406 207.382812 C 86.804688 207.457031 86.6875 207.632812 86.730469 207.875 C 86.941406 209.082031 87.167969 210.285156 87.367188 211.496094 C 87.441406 211.964844 87.320312 212.375 86.992188 212.726562 C 86.40625 213.351562 85.835938 213.984375 85.246094 214.605469 C 83.566406 216.15625 84.417969 216.070312 86.191406 216.628906 C 91.40625 217.972656 96.777344 218.585938 102.097656 219.359375 C 103.496094 219.546875 104.894531 219.726562 106.296875 219.902344 C 106.816406 219.941406 106.589844 219.605469 106.464844 219.316406 C 101.582031 209.769531 104.601562 198.316406 113.375 192.285156 C 119.1875 188.058594 126.691406 188.117188 133.542969 187.183594 C 141.941406 186.386719 167.597656 185.613281 169.976562 185.582031 C 180.160156 185.414062 190.34375 185.320312 200.523438 185.605469 C 203.421875 185.613281 206.316406 185.832031 209.210938 185.917969 C 209.519531 185.933594 209.84375 185.894531 210.03125 185.636719 C 210.273438 185.308594 211.542969 185.167969 212.332031 185.066406 C 214.257812 184.882812 216.183594 184.730469 218.105469 184.582031 C 220.210938 184.398438 217.648438 186.449219 218.484375 186.628906 C 219.257812 186.710938 220.035156 186.761719 220.808594 186.820312 C 220.867188 186.847656 220.84375 186.949219 220.792969 186.96875 C 200.636719 188.808594 157.933594 192.710938 156.785156 192.746094 C 156.757812 192.746094 156.714844 192.714844 156.703125 192.6875 C 156.691406 192.65625 156.703125 192.601562 156.726562 192.582031 C 157.3125 192.097656 158.007812 191.835938 158.71875 191.632812 C 161.089844 190.90625 163.601562 190.605469 165.976562 189.976562 C 165.9375 189.941406 148.214844 191.480469 145.355469 191.933594 C 145.214844 191.960938 145.328125 192.136719 145.371094 192.183594 C 146.089844 192.757812 147.160156 192.488281 147.816406 193.148438 C 150.859375 196.039062 153.617188 199.222656 156.171875 202.550781 C 156.222656 202.65625 156.097656 202.824219 156.003906 202.683594 C 155.371094 202.003906 149.824219 196.097656 147.449219 194.066406 C 147.242188 193.882812 147.007812 193.800781 146.734375 193.820312 C 144.996094 193.964844 143.257812 194.160156 141.523438 194.320312 C 141.453125 194.328125 141.355469 194.363281 141.332031 194.410156 C 141.308594 194.457031 141.332031 194.5625 141.375 194.613281 C 144.375 198.066406 146.652344 202.1875 147.210938 206.785156 C 147.875 211.132812 146.804688 215.519531 144.824219 219.390625 C 144.75 219.558594 144.664062 219.726562 144.589844 219.894531 C 144.539062 220.003906 144.609375 220.136719 144.714844 220.136719 C 174.445312 220.25 204.175781 220.144531 233.90625 220.160156 C 234.242188 220.160156 234.574219 220.148438 234.910156 220.136719 C 235.273438 220.023438 234.878906 219.617188 234.816406 219.40625 C 232.433594 214.796875 231.96875 209.445312 233.058594 204.359375 C 233.195312 203.71875 233.40625 203.253906 233.5625 202.828125 C 234 201.644531 234.449219 200.460938 235.054688 199.351562 C 235.140625 199.199219 235.066406 199.03125 234.914062 199.019531 C 233.359375 198.929688 231.796875 198.910156 230.234375 198.898438 C 227.558594 198.90625 224.886719 198.9375 222.210938 198.949219 C 221.757812 198.953125 221.128906 199.03125 220.910156 199.015625 C 218.421875 198.957031 215.9375 199.222656 213.453125 199.300781 C 208.445312 199.597656 203.457031 200.050781 198.488281 200.765625 C 186.082031 202.378906 173.898438 205.519531 162.179688 209.859375 C 159.371094 210.9375 156.515625 211.882812 153.765625 213.109375 C 153.636719 213.164062 153.511719 213.320312 153.566406 213.347656 C 156.304688 213.339844 197.796875 210.8125 207.191406 209.925781 C 213.339844 209.34375 215.636719 208.59375 218.890625 203.339844 C 219.3125 202.636719 219.738281 201.945312 220.164062 201.246094 C 220.230469 201.132812 218.707031 204.585938 216.988281 207.160156 C 215.34375 209.875 212.734375 212.105469 209.429688 212.167969 C 206.429688 212.367188 203.417969 212.375 200.410156 212.472656 C 192.878906 212.867188 185.335938 213.054688 177.804688 213.355469 C 170.679688 213.78125 163.550781 213.90625 156.425781 214.242188 C 153.789062 214.375 151.15625 214.535156 148.523438 214.644531 C 148.398438 214.628906 148.203125 214.65625 148.148438 214.519531 C 152.410156 211.203125 157.621094 208.792969 162.378906 206.101562 L 163.46875 205.496094 C 173.585938 200.183594 184.15625 195.574219 195.34375 193.070312 C 202.445312 191.46875 209.703125 190.707031 216.953125 190.097656 C 221.742188 189.695312 237.128906 189.996094 242.589844 190.648438 C 243.417969 190.765625 244.164062 190.695312 244.957031 190.316406 C 248.851562 188.460938 252.894531 187.988281 256.933594 188.574219 C 259.726562 188.945312 262.335938 189.882812 264.757812 191.324219 C 265.117188 191.539062 266.167969 192.191406 266.347656 192.335938 C 272.527344 196.703125 276.210938 204.410156 275.21875 211.976562 C 274.96875 214.058594 274.3125 216.023438 273.617188 217.984375 C 273.613281 218.03125 273.695312 218.132812 273.734375 218.128906 C 273.953125 218.117188 274.179688 218.101562 274.386719 218.042969 C 277.929688 217.054688 285.570312 214.183594 285.785156 213.808594 C 286.28125 212.882812 287.234375 212.433594 288.203125 212.175781 C 288.976562 211.929688 289.539062 211.851562 289.632812 210.878906 C 289.96875 209.355469 290.304688 207.835938 290.640625 206.3125 C 290.695312 206.0625 290.636719 205.828125 290.449219 205.609375 Z M 283.660156 182.449219 C 284.0625 182.03125 284.472656 181.636719 284.628906 182.007812 C 285.003906 184.082031 285.980469 186.003906 286.617188 188.003906 C 286.707031 188.214844 286.691406 188.5 286.445312 188.550781 C 285.949219 188.644531 285.457031 188.835938 285.03125 188.699219 C 284.363281 188.371094 282.714844 183.691406 283.660156 182.449219 Z M 222.121094 179.433594 C 222.015625 179.449219 221.898438 179.496094 221.832031 179.570312 C 221.714844 179.699219 221.605469 179.75 221.460938 179.648438 C 221.238281 179.492188 221.003906 179.453125 220.722656 179.492188 C 217.667969 179.890625 214.589844 180.058594 211.523438 180.335938 C 202.832031 181.132812 194.121094 181.617188 185.40625 182 C 179.429688 182.121094 173.457031 182.449219 167.480469 182.527344 C 166.476562 182.53125 161.542969 182.617188 161.257812 182.398438 C 162.335938 182.238281 163.476562 182.308594 164.578125 182.230469 C 165.28125 182.226562 166.011719 182.238281 166.609375 181.808594 C 168.96875 180.140625 171.601562 178.871094 173.90625 177.132812 C 173.804688 178.023438 173.984375 178.90625 174.089844 179.789062 C 174.347656 181.589844 174.222656 181.515625 176.082031 181.367188 C 177.359375 181.210938 178.691406 181.117188 179.882812 180.601562 C 180.019531 180.53125 180.121094 180.402344 180.117188 180.25 C 180.089844 179.359375 180.058594 178.472656 180.015625 177.585938 C 179.96875 177.214844 180 176.660156 179.546875 176.550781 C 177.945312 176.121094 176.316406 176.230469 174.699219 176.507812 C 174.890625 176.246094 175.203125 176.175781 175.472656 176.089844 C 179.316406 174.609375 182.859375 172.453125 186.761719 171.09375 C 195.1875 167.738281 204.390625 166.109375 213.453125 166.84375 C 223.046875 167.496094 232.664062 169.070312 241.890625 171.796875 C 246.523438 173.308594 246.140625 174.777344 241.628906 176.015625 C 235.921875 177.53125 230.0625 178.398438 224.21875 179.148438 C 223.515625 179.242188 222.816406 179.335938 222.121094 179.433594 Z M 252.980469 176.914062 C 244.636719 177.382812 236.117188 179.035156 228.527344 182.605469 C 233.898438 181.371094 239.316406 179.886719 244.84375 179.242188 C 248.613281 178.800781 250.460938 178.863281 252.484375 178.796875 C 248.058594 178.941406 243.71875 179.621094 241.238281 180.089844 C 237.25 180.792969 233.332031 181.804688 229.425781 182.84375 C 228.34375 183.109375 227.253906 183.332031 226.164062 183.566406 C 226.109375 183.582031 226.035156 183.527344 225.972656 183.503906 C 231.238281 180.320312 237.515625 178.921875 243.503906 177.652344 C 246.144531 177.25 248.796875 176.847656 251.464844 176.726562 C 254.140625 176.730469 256.816406 176.75 259.492188 176.765625 C 259.769531 176.777344 260.070312 176.734375 260.277344 176.957031 C 257.847656 176.875 255.414062 176.929688 252.980469 176.914062 Z M 289.875 205.964844 C 289.078125 206.941406 287.601562 210.828125 287.128906 211.492188 C 286.667969 212.066406 286.425781 211.992188 286.71875 211.261719 C 287.113281 210.277344 289.410156 204.8125 289.945312 205.792969 C 289.976562 205.839844 289.917969 205.921875 289.875 205.964844 Z M 289.875 205.964844 " fill-opacity="1" fill-rule="nonzero"/></g><g clip-path="url(#c2dfd0c143)"><path fill="#444444" d="M 144.320312 205.449219 C 138.992188 184.574219 108.753906 187.144531 106.769531 208.484375 C 105.804688 225.292969 126.050781 233.945312 138.390625 223.253906 C 143.417969 219.023438 145.84375 211.847656 144.320312 205.449219 Z M 111.386719 213.410156 C 111.207031 213.316406 111.074219 213.035156 110.867188 213.035156 C 110.699219 213.734375 111.160156 214.476562 111.183594 215.195312 C 110.910156 215.742188 110.355469 213.195312 110.335938 212.988281 C 109.710938 209.613281 110.074219 206.117188 111.652344 203.132812 C 111.695312 203.050781 111.765625 203.039062 111.8125 203.09375 C 111.859375 203.914062 111.496094 204.769531 111.375 205.59375 C 111.054688 207.097656 111.097656 208.621094 111.378906 210.128906 C 111.503906 210.707031 111.453125 211.234375 110.953125 211.636719 C 110.929688 211.65625 110.917969 211.734375 110.929688 211.742188 C 111.160156 211.941406 112.542969 211.421875 112.945312 211.367188 C 115.804688 210.734375 118.769531 209.882812 121.695312 209.988281 C 121.652344 210.042969 121.625 210.132812 121.570312 210.148438 C 118.386719 211.15625 115.121094 211.875 111.878906 212.671875 C 111.253906 212.71875 111.910156 213.59375 111.386719 213.410156 Z M 112.671875 217.671875 C 112.632812 217.6875 112.566406 217.621094 112.511719 217.582031 C 114.910156 215.78125 117.761719 214.519531 120.527344 213.339844 C 120.636719 213.316406 120.753906 213.300781 120.824219 213.421875 C 118.828125 214.753906 116.675781 215.871094 114.527344 216.941406 C 113.929688 217.226562 113.292969 217.4375 112.671875 217.671875 Z M 115.042969 219.960938 C 114.835938 219.585938 115.246094 219.277344 115.558594 219.136719 C 115.789062 219.050781 115.976562 219.191406 116.109375 219.371094 C 120.34375 224 127.527344 224.082031 132.953125 221.632812 C 133.167969 221.550781 133.828125 221.078125 133.871094 221.464844 C 129.070312 225.988281 118.828125 225.523438 115.042969 219.960938 Z M 130.730469 210.339844 C 129.503906 209.757812 131.996094 209.980469 132.292969 209.976562 C 133.757812 210.109375 137.363281 210.667969 138.328125 211.65625 C 138.28125 211.710938 137.945312 211.695312 138.136719 211.695312 C 135.457031 211.507812 133.058594 211.09375 130.730469 210.339844 Z M 138.160156 218.304688 C 137.878906 218.355469 137.710938 217.964844 137.535156 217.792969 C 137.339844 217.425781 137.675781 217.003906 137.960938 216.773438 C 138.035156 216.714844 138.089844 216.71875 138.152344 216.796875 C 138.324219 217.066406 138.648438 217.273438 138.660156 217.613281 C 138.546875 217.886719 138.429688 218.152344 138.160156 218.304688 Z M 140.347656 214.417969 C 140.234375 214.832031 140.128906 215.433594 139.667969 215.578125 C 138.65625 214.910156 139.089844 214.535156 139.527344 213.667969 C 139.683594 213.351562 140.429688 214.21875 140.347656 214.417969 Z M 141.261719 211.519531 C 141.222656 211.769531 141.125 212.015625 141.046875 212.257812 C 140.917969 212.488281 140.660156 212.097656 140.515625 212.027344 C 139.886719 211.566406 140.238281 210.707031 140.207031 210.046875 C 140.1875 206.71875 139.15625 203.765625 137.070312 201.1875 C 136.789062 200.84375 136.464844 200.539062 136.148438 200.222656 C 135.800781 199.90625 135.511719 200.457031 135.300781 200.6875 C 133.292969 203.265625 131.210938 205.785156 129.054688 208.242188 C 128.984375 208.324219 128.925781 208.316406 128.894531 208.214844 C 130.722656 205.007812 132.933594 201.898438 135.019531 198.8125 C 135.195312 198.566406 134.890625 198.34375 134.703125 198.222656 C 133.96875 197.789062 133.230469 197.359375 132.488281 196.9375 C 132.222656 196.789062 132.070312 196.832031 131.917969 197.054688 C 130.019531 200.007812 128.394531 203.195312 126.535156 206.140625 C 127.128906 203.003906 128.769531 200 130.28125 197.164062 C 130.355469 196.945312 130.636719 196.667969 130.40625 196.476562 C 127.3125 195.15625 123.742188 195.273438 120.621094 196.445312 C 120.148438 196.675781 120.878906 197.453125 120.984375 197.792969 C 122.519531 200.46875 123.828125 203.265625 124.734375 206.21875 C 124.710938 206.636719 124.402344 206.042969 124.316406 205.933594 C 122.542969 202.921875 120.8125 199.894531 119.015625 196.902344 C 118.597656 196.0625 116.839844 198.121094 116.417969 198.460938 C 115.914062 198.976562 115.914062 199.039062 116.367188 199.664062 C 118.324219 202.417969 120.378906 205.101562 122.265625 207.902344 C 122.296875 208 122.199219 208.167969 122.09375 208.027344 C 119.746094 205.691406 117.660156 203.125 115.5 200.625 C 115.371094 200.480469 115.183594 200.199219 114.976562 200.371094 C 114.511719 200.90625 114.050781 201.4375 113.589844 201.972656 C 113.257812 202.351562 112.914062 202.394531 112.410156 202.101562 C 112.160156 201.957031 113.011719 200.898438 113.121094 200.691406 C 122.652344 188.042969 142.917969 195.816406 141.261719 211.519531 Z M 141.261719 211.519531 " fill-opacity="1" fill-rule="nonzero"/></g><g clip-path="url(#55ca4f6756)"><path fill="#444444" d="M 239.25 197.9375 C 229.039062 209.976562 238.414062 228.230469 253.929688 227.933594 C 267.964844 228.488281 277.710938 212.199219 270.171875 200.230469 C 263.835938 189.144531 247.335938 187.820312 239.25 197.9375 Z M 240.597656 214.90625 C 240.464844 215.152344 240.167969 215.699219 239.832031 215.527344 C 239.585938 215.15625 239.417969 214.75 239.335938 214.308594 C 239.277344 214.105469 240.019531 213.742188 240.195312 213.71875 C 240.460938 213.925781 240.746094 214.589844 240.597656 214.90625 Z M 241.871094 218.058594 C 241.507812 218.71875 240.785156 217.804688 240.988281 217.410156 C 241.191406 217.234375 241.378906 216.9375 241.648438 216.882812 C 242.148438 217.132812 242.207031 217.640625 241.871094 218.058594 Z M 248.855469 210.324219 C 246.898438 210.898438 244.921875 211.367188 242.882812 211.546875 C 242.433594 211.597656 241.933594 211.703125 241.488281 211.703125 C 241.148438 211.53125 241.769531 211.335938 241.894531 211.246094 C 244.210938 210.378906 246.792969 209.75 249.257812 210.003906 C 249.203125 210.199219 249.03125 210.273438 248.855469 210.324219 Z M 257.160156 208.28125 C 257.144531 208.214844 257.089844 208.125 257.113281 208.089844 C 257.351562 207.714844 257.601562 207.34375 257.859375 206.980469 C 259.519531 204.699219 261.125 202.375 262.746094 200.0625 C 263.203125 199.1875 264.0625 199.074219 263.070312 198.421875 C 262.640625 198.136719 260.941406 196.574219 260.542969 197.140625 C 258.554688 200 256.910156 203.105469 254.957031 205.984375 C 254.835938 205.914062 254.910156 205.722656 254.933594 205.609375 C 255.953125 202.574219 257.390625 199.714844 259.039062 196.976562 C 259.179688 196.726562 259.117188 196.578125 258.839844 196.460938 C 255.84375 195.25 252.5 195.230469 249.472656 196.332031 C 249.324219 196.382812 249.074219 196.484375 249.109375 196.671875 C 250.605469 199.585938 252.0625 202.503906 252.9375 205.675781 C 252.953125 205.765625 252.984375 206.027344 252.867188 206.019531 C 251.011719 203.152344 249.535156 199.96875 247.804688 197 C 247.671875 196.746094 247.445312 196.453125 247.128906 196.625 C 246.214844 197.046875 245.382812 197.605469 244.59375 198.234375 C 244.453125 198.347656 244.429688 198.558594 244.542969 198.734375 C 244.882812 199.269531 245.222656 199.800781 245.570312 200.324219 C 247.246094 202.867188 249 205.363281 250.628906 207.933594 C 250.738281 208.105469 250.746094 208.265625 250.65625 208.226562 C 248.410156 206.015625 246.570312 203.339844 244.519531 200.921875 C 244.222656 200.65625 243.902344 199.84375 243.460938 200.335938 C 240.59375 203.1875 239.191406 207.339844 239.535156 211.316406 C 239.582031 211.816406 239.148438 212.199219 238.757812 212.429688 C 238.726562 212.445312 238.605469 212.371094 238.597656 212.328125 C 237.757812 208.160156 238.992188 203.695312 241.691406 200.429688 C 248.21875 192.039062 261.089844 192.378906 266.941406 201.320312 C 267.296875 201.859375 267.484375 202.207031 266.625 202.15625 C 265.820312 202.320312 264.789062 199.722656 264.226562 200.425781 C 261.882812 203.046875 259.6875 205.859375 257.160156 208.28125 Z M 266.910156 217.628906 C 264.222656 216.578125 261.425781 215.277344 259.113281 213.585938 C 259.214844 213.554688 259.214844 213.425781 259.417969 213.53125 C 261.164062 214.421875 263.039062 215.023438 264.75 215.984375 C 265.519531 216.417969 266.265625 216.894531 267.015625 217.371094 C 267.265625 217.527344 267.109375 217.71875 266.910156 217.628906 Z M 268.847656 214.628906 C 268.722656 214.851562 268.734375 215.242188 268.453125 215.3125 C 268.433594 215.246094 268.386719 215.167969 268.402344 215.109375 C 268.550781 214.425781 268.800781 213.757812 268.789062 213.046875 C 268.664062 212.742188 268.300781 213.351562 268.121094 213.390625 C 267.945312 213.105469 268.25 212.832031 267.792969 212.710938 C 266.460938 212.382812 265.125 212.066406 263.792969 211.742188 C 261.773438 211.25 259.773438 210.707031 257.796875 210.074219 C 257.753906 210.058594 257.738281 209.960938 257.71875 209.894531 C 259.328125 209.828125 261.039062 210.265625 262.660156 210.507812 C 264.636719 210.820312 266.574219 211.367188 268.542969 211.691406 C 268.601562 211.6875 268.667969 211.59375 268.628906 211.535156 C 268.0625 210.910156 268.0625 210.75 268.261719 209.933594 C 268.472656 209.136719 268.507812 208.324219 268.472656 207.507812 C 268.429688 206.542969 268.261719 205.59375 268.066406 204.644531 C 268.027344 204.171875 267.679688 203.449219 267.828125 203.03125 C 269.945312 206.425781 269.945312 211.066406 268.847656 214.628906 Z M 268.847656 214.628906 " fill-opacity="1" fill-rule="nonzero"/></g><path fill="#444444" d="M 210.917969 186.664062 C 213.625 186.546875 214.28125 186.523438 215.808594 186.492188 C 216.640625 186.476562 216.578125 186.511719 217.0625 185.8125 C 217.160156 185.664062 217.359375 185.347656 217.085938 185.277344 C 215.636719 185.226562 214.195312 185.355469 212.753906 185.449219 C 212.199219 185.488281 211.644531 185.570312 211.09375 185.628906 C 210.765625 185.65625 210.539062 185.828125 210.402344 186.113281 C 210.082031 186.777344 210.320312 186.71875 210.917969 186.664062 Z M 210.917969 186.664062 " fill-opacity="1" fill-rule="nonzero"/><path fill="#444444" d="M 222.984375 168.238281 C 221.882812 167.902344 220.714844 167.894531 219.578125 167.730469 C 208.695312 166.363281 197.414062 167.042969 187.195312 171.265625 C 184.390625 172.355469 181.652344 173.585938 178.960938 174.929688 C 178.792969 175.035156 178.535156 175.085938 178.511719 175.316406 C 178.507812 175.335938 178.558594 175.378906 178.589844 175.386719 C 178.984375 175.480469 179.386719 175.546875 179.777344 175.660156 C 180.714844 175.941406 180.777344 175.828125 180.804688 176.921875 C 180.835938 178.160156 180.765625 178.078125 181.984375 178.042969 C 189.664062 177.703125 197.339844 177.46875 205.027344 177.414062 C 205.027344 177.425781 205.027344 177.441406 205.027344 177.457031 C 209.964844 177.53125 214.902344 177.566406 219.832031 177.796875 C 220.433594 177.804688 220.453125 177.035156 220.667969 176.625 C 221.558594 174.066406 222.417969 171.496094 223.042969 168.855469 C 223.085938 168.660156 223.179688 168.363281 222.984375 168.238281 Z M 222.984375 168.238281 " fill-opacity="1" fill-rule="nonzero"/><path fill="#444444" d="M 244.171875 173.40625 C 241.113281 171.609375 237.539062 171.039062 234.140625 170.183594 C 230.957031 169.484375 227.742188 168.8125 224.507812 168.445312 C 224.386719 168.4375 224.214844 168.566406 224.175781 168.699219 C 223.464844 171.714844 222.566406 174.65625 221.539062 177.554688 C 221.511719 177.644531 221.625 177.765625 221.734375 177.765625 C 222.253906 177.753906 222.773438 177.738281 223.292969 177.71875 C 227.414062 177.554688 231.53125 177.355469 235.605469 176.675781 C 236.605469 176.492188 246.234375 175.054688 244.171875 173.40625 Z M 244.171875 173.40625 " fill-opacity="1" fill-rule="nonzero"/><g clip-path="url(#331a5aec2b)"><g clip-path="url(#f2f3eeaccf)"><g clip-path="url(#13fa5ba3a1)"><path fill="#ff3811" d="M 286.726562 192.855469 C 286.503906 188.789062 286.03125 184.792969 285.324219 180.882812 L 273.34375 178.058594 C 271.550781 170.753906 268.820312 163.835938 265.292969 157.429688 L 272.308594 147.207031 C 268.023438 140.355469 262.902344 134.09375 257.101562 128.558594 L 245.570312 133.390625 C 239.984375 128.675781 233.785156 124.667969 227.125 121.507812 L 226.785156 108.949219 C 219.429688 105.964844 211.632812 103.871094 203.542969 102.789062 L 196.996094 113.5625 C 193.398438 113.300781 189.738281 113.261719 186.039062 113.464844 C 182.339844 113.667969 178.707031 114.105469 175.15625 114.761719 L 167.472656 104.765625 C 159.550781 106.730469 152.027344 109.664062 145.046875 113.433594 L 146.082031 125.957031 C 139.804688 129.828125 134.085938 134.488281 129.046875 139.785156 L 117.054688 136.246094 C 111.894531 142.378906 107.492188 149.164062 103.988281 156.445312 L 112.074219 165.839844 C 109.269531 172.589844 107.3125 179.765625 106.332031 187.226562 L 94.730469 191.34375 C 94.453125 195.308594 94.421875 199.332031 94.644531 203.398438 C 94.667969 203.824219 94.699219 204.246094 94.726562 204.671875 C 94.746094 205.097656 94.761719 205.519531 94.785156 205.945312 C 95.007812 210.011719 95.480469 214.007812 96.1875 217.917969 L 108.171875 220.742188 C 109.964844 228.046875 112.691406 234.964844 116.21875 241.371094 L 109.203125 251.59375 C 113.488281 258.445312 118.609375 264.707031 124.410156 270.242188 L 135.941406 265.410156 C 141.53125 270.125 147.726562 274.132812 154.390625 277.292969 L 154.730469 289.851562 C 162.082031 292.835938 169.878906 294.929688 177.972656 296.011719 L 184.515625 285.238281 C 188.117188 285.5 191.773438 285.539062 195.472656 285.335938 C 199.171875 285.132812 202.804688 284.695312 206.355469 284.039062 L 214.039062 294.035156 C 221.964844 292.070312 229.484375 289.136719 236.464844 285.367188 L 235.429688 272.84375 C 241.707031 268.972656 247.425781 264.3125 252.464844 259.015625 L 264.457031 262.554688 C 269.617188 256.421875 274.023438 249.636719 277.523438 242.355469 L 269.4375 232.960938 C 272.242188 226.210938 274.199219 219.035156 275.183594 211.574219 L 286.78125 207.457031 C 287.058594 203.492188 287.089844 199.46875 286.867188 195.402344 C 286.84375 194.976562 286.8125 194.554688 286.785156 194.128906 C 286.769531 193.703125 286.75 193.28125 286.726562 192.855469 Z M 195.117188 278.828125 C 152.164062 281.1875 115.378906 248.585938 112.417969 205.808594 C 112.429688 205.808594 112.445312 205.804688 112.460938 205.800781 C 112.398438 205.109375 112.355469 204.40625 112.308594 203.707031 C 112.277344 203.003906 112.246094 202.304688 112.230469 201.609375 C 112.214844 201.605469 112.203125 201.605469 112.183594 201.605469 C 110.445312 158.761719 143.445312 122.328125 186.398438 119.972656 C 229.347656 117.613281 266.136719 150.214844 269.097656 192.992188 C 269.082031 192.992188 269.066406 192.996094 269.050781 193 C 269.113281 193.691406 269.15625 194.394531 269.203125 195.09375 C 269.234375 195.796875 269.265625 196.496094 269.28125 197.191406 C 269.296875 197.195312 269.3125 197.195312 269.328125 197.195312 C 271.066406 240.039062 238.066406 276.472656 195.117188 278.828125 Z M 195.117188 278.828125 " fill-opacity="1" fill-rule="nonzero"/></g></g></g><g fill="#444444" fill-opacity="1"><g transform="translate(68.623395, 256.557523)"><g><path d="M 13.015625 0 C 12.765625 0 12.570312 -0.125 12.4375 -0.375 L 8.875 -8.265625 C 8.832031 -8.359375 8.765625 -8.40625 8.671875 -8.40625 L 6.03125 -8.40625 C 5.914062 -8.40625 5.859375 -8.347656 5.859375 -8.234375 L 5.859375 -0.5 C 5.859375 -0.164062 5.691406 0 5.359375 0 L 2.265625 0 C 1.929688 0 1.765625 -0.164062 1.765625 -0.5 L 1.765625 -19.84375 C 1.765625 -20.164062 1.929688 -20.328125 2.265625 -20.328125 L 10.40625 -20.328125 C 11.644531 -20.328125 12.734375 -20.070312 13.671875 -19.5625 C 14.609375 -19.050781 15.332031 -18.332031 15.84375 -17.40625 C 16.351562 -16.476562 16.609375 -15.410156 16.609375 -14.203125 C 16.609375 -12.890625 16.28125 -11.757812 15.625 -10.8125 C 14.96875 -9.863281 14.0625 -9.195312 12.90625 -8.8125 C 12.84375 -8.789062 12.800781 -8.753906 12.78125 -8.703125 C 12.769531 -8.660156 12.78125 -8.617188 12.8125 -8.578125 L 16.640625 -0.578125 C 16.703125 -0.503906 16.734375 -0.414062 16.734375 -0.3125 C 16.734375 -0.21875 16.691406 -0.140625 16.609375 -0.078125 C 16.535156 -0.0234375 16.429688 0 16.296875 0 Z M 6.03125 -16.796875 C 5.914062 -16.796875 5.859375 -16.734375 5.859375 -16.609375 L 5.859375 -11.75 C 5.859375 -11.632812 5.914062 -11.578125 6.03125 -11.578125 L 9.796875 -11.578125 C 10.609375 -11.578125 11.269531 -11.8125 11.78125 -12.28125 C 12.300781 -12.75 12.5625 -13.375 12.5625 -14.15625 C 12.5625 -14.925781 12.300781 -15.554688 11.78125 -16.046875 C 11.269531 -16.546875 10.609375 -16.796875 9.796875 -16.796875 Z M 6.03125 -16.796875 "/></g></g></g><g fill="#444444" fill-opacity="1"><g transform="translate(86.424587, 256.557523)"><g><path d="M 8.703125 -3.21875 C 9.972656 -3.28125 10.945312 -3.722656 11.625 -4.546875 C 11.738281 -4.679688 11.863281 -4.75 12 -4.75 C 12.125 -4.75 12.234375 -4.703125 12.328125 -4.609375 L 13.984375 -3.015625 C 14.097656 -2.898438 14.15625 -2.785156 14.15625 -2.671875 C 14.15625 -2.535156 14.113281 -2.414062 14.03125 -2.3125 C 13.394531 -1.519531 12.578125 -0.894531 11.578125 -0.4375 C 10.585938 0.0078125 9.503906 0.234375 8.328125 0.234375 C 6.546875 0.234375 5.066406 -0.21875 3.890625 -1.125 C 2.722656 -2.039062 1.9375 -3.289062 1.53125 -4.875 C 1.300781 -5.71875 1.1875 -6.613281 1.1875 -7.5625 C 1.1875 -8.6875 1.296875 -9.632812 1.515625 -10.40625 C 1.898438 -11.84375 2.675781 -12.992188 3.84375 -13.859375 C 5.007812 -14.734375 6.394531 -15.171875 8 -15.171875 C 9.894531 -15.171875 11.398438 -14.609375 12.515625 -13.484375 C 13.628906 -12.359375 14.347656 -10.785156 14.671875 -8.765625 C 14.753906 -8.117188 14.8125 -7.410156 14.84375 -6.640625 C 14.84375 -6.304688 14.679688 -6.140625 14.359375 -6.140625 L 5.453125 -6.140625 C 5.335938 -6.140625 5.28125 -6.082031 5.28125 -5.96875 C 5.332031 -5.5625 5.398438 -5.265625 5.484375 -5.078125 C 5.671875 -4.472656 6.050781 -4.007812 6.625 -3.6875 C 7.195312 -3.375 7.890625 -3.21875 8.703125 -3.21875 Z M 7.953125 -11.625 C 7.328125 -11.625 6.804688 -11.472656 6.390625 -11.171875 C 5.972656 -10.878906 5.6875 -10.460938 5.53125 -9.921875 C 5.4375 -9.546875 5.378906 -9.300781 5.359375 -9.1875 C 5.347656 -9.070312 5.398438 -9.015625 5.515625 -9.015625 L 10.4375 -9.015625 C 10.53125 -9.015625 10.578125 -9.054688 10.578125 -9.140625 C 10.578125 -9.347656 10.539062 -9.566406 10.46875 -9.796875 C 10.289062 -10.359375 9.988281 -10.800781 9.5625 -11.125 C 9.144531 -11.457031 8.609375 -11.625 7.953125 -11.625 Z M 7.953125 -11.625 "/></g></g></g><g fill="#444444" fill-opacity="1"><g transform="translate(102.283305, 256.557523)"><g><path d="M 5.765625 0 C 5.492188 0 5.3125 -0.132812 5.21875 -0.40625 L 0.71875 -14.359375 C 0.707031 -14.390625 0.703125 -14.445312 0.703125 -14.53125 C 0.703125 -14.644531 0.738281 -14.734375 0.8125 -14.796875 C 0.882812 -14.867188 0.988281 -14.90625 1.125 -14.90625 L 4.546875 -14.90625 C 4.816406 -14.90625 5.003906 -14.757812 5.109375 -14.46875 L 7.421875 -5.765625 C 7.441406 -5.691406 7.476562 -5.65625 7.53125 -5.65625 C 7.59375 -5.65625 7.632812 -5.691406 7.65625 -5.765625 L 9.96875 -14.46875 C 10.070312 -14.757812 10.257812 -14.90625 10.53125 -14.90625 L 13.953125 -14.875 C 14.117188 -14.875 14.238281 -14.820312 14.3125 -14.71875 C 14.394531 -14.613281 14.410156 -14.484375 14.359375 -14.328125 L 9.890625 -0.40625 C 9.796875 -0.132812 9.601562 0 9.3125 0 Z M 5.765625 0 "/></g></g></g><g fill="#444444" fill-opacity="1"><g transform="translate(117.359235, 256.557523)"><g><path d="M 3.765625 -16.328125 C 3.035156 -16.328125 2.4375 -16.550781 1.96875 -17 C 1.507812 -17.457031 1.28125 -18.046875 1.28125 -18.765625 C 1.28125 -19.484375 1.507812 -20.066406 1.96875 -20.515625 C 2.4375 -20.972656 3.035156 -21.203125 3.765625 -21.203125 C 4.523438 -21.203125 5.128906 -20.976562 5.578125 -20.53125 C 6.035156 -20.082031 6.265625 -19.492188 6.265625 -18.765625 C 6.265625 -18.023438 6.035156 -17.429688 5.578125 -16.984375 C 5.128906 -16.546875 4.523438 -16.328125 3.765625 -16.328125 Z M 2.234375 0 C 1.898438 0 1.734375 -0.164062 1.734375 -0.5 L 1.734375 -14.40625 C 1.734375 -14.738281 1.898438 -14.90625 2.234375 -14.90625 L 5.34375 -14.90625 C 5.664062 -14.90625 5.828125 -14.738281 5.828125 -14.40625 L 5.828125 -0.5 C 5.828125 -0.164062 5.664062 0 5.34375 0 Z M 2.234375 0 "/></g></g></g><g fill="#444444" fill-opacity="1"><g transform="translate(124.897206, 256.557523)"><g><path d="M 5.765625 0 C 5.492188 0 5.3125 -0.132812 5.21875 -0.40625 L 0.71875 -14.359375 C 0.707031 -14.390625 0.703125 -14.445312 0.703125 -14.53125 C 0.703125 -14.644531 0.738281 -14.734375 0.8125 -14.796875 C 0.882812 -14.867188 0.988281 -14.90625 1.125 -14.90625 L 4.546875 -14.90625 C 4.816406 -14.90625 5.003906 -14.757812 5.109375 -14.46875 L 7.421875 -5.765625 C 7.441406 -5.691406 7.476562 -5.65625 7.53125 -5.65625 C 7.59375 -5.65625 7.632812 -5.691406 7.65625 -5.765625 L 9.96875 -14.46875 C 10.070312 -14.757812 10.257812 -14.90625 10.53125 -14.90625 L 13.953125 -14.875 C 14.117188 -14.875 14.238281 -14.820312 14.3125 -14.71875 C 14.394531 -14.613281 14.410156 -14.484375 14.359375 -14.328125 L 9.890625 -0.40625 C 9.796875 -0.132812 9.601562 0 9.3125 0 Z M 5.765625 0 "/></g></g></g><g fill="#444444" fill-opacity="1"><g transform="translate(139.973137, 256.557523)"><g><path d="M 8.703125 -3.21875 C 9.972656 -3.28125 10.945312 -3.722656 11.625 -4.546875 C 11.738281 -4.679688 11.863281 -4.75 12 -4.75 C 12.125 -4.75 12.234375 -4.703125 12.328125 -4.609375 L 13.984375 -3.015625 C 14.097656 -2.898438 14.15625 -2.785156 14.15625 -2.671875 C 14.15625 -2.535156 14.113281 -2.414062 14.03125 -2.3125 C 13.394531 -1.519531 12.578125 -0.894531 11.578125 -0.4375 C 10.585938 0.0078125 9.503906 0.234375 8.328125 0.234375 C 6.546875 0.234375 5.066406 -0.21875 3.890625 -1.125 C 2.722656 -2.039062 1.9375 -3.289062 1.53125 -4.875 C 1.300781 -5.71875 1.1875 -6.613281 1.1875 -7.5625 C 1.1875 -8.6875 1.296875 -9.632812 1.515625 -10.40625 C 1.898438 -11.84375 2.675781 -12.992188 3.84375 -13.859375 C 5.007812 -14.734375 6.394531 -15.171875 8 -15.171875 C 9.894531 -15.171875 11.398438 -14.609375 12.515625 -13.484375 C 13.628906 -12.359375 14.347656 -10.785156 14.671875 -8.765625 C 14.753906 -8.117188 14.8125 -7.410156 14.84375 -6.640625 C 14.84375 -6.304688 14.679688 -6.140625 14.359375 -6.140625 L 5.453125 -6.140625 C 5.335938 -6.140625 5.28125 -6.082031 5.28125 -5.96875 C 5.332031 -5.5625 5.398438 -5.265625 5.484375 -5.078125 C 5.671875 -4.472656 6.050781 -4.007812 6.625 -3.6875 C 7.195312 -3.375 7.890625 -3.21875 8.703125 -3.21875 Z M 7.953125 -11.625 C 7.328125 -11.625 6.804688 -11.472656 6.390625 -11.171875 C 5.972656 -10.878906 5.6875 -10.460938 5.53125 -9.921875 C 5.4375 -9.546875 5.378906 -9.300781 5.359375 -9.1875 C 5.347656 -9.070312 5.398438 -9.015625 5.515625 -9.015625 L 10.4375 -9.015625 C 10.53125 -9.015625 10.578125 -9.054688 10.578125 -9.140625 C 10.578125 -9.347656 10.539062 -9.566406 10.46875 -9.796875 C 10.289062 -10.359375 9.988281 -10.800781 9.5625 -11.125 C 9.144531 -11.457031 8.609375 -11.625 7.953125 -11.625 Z M 7.953125 -11.625 "/></g></g></g><g fill="#444444" fill-opacity="1"><g transform="translate(155.831854, 256.557523)"><g/></g></g><g fill="#444444" fill-opacity="1"><g transform="translate(161.630289, 256.557523)"><g><path d="M 14.8125 0 C 14.539062 0 14.359375 -0.132812 14.265625 -0.40625 L 13.453125 -3.109375 C 13.429688 -3.203125 13.375 -3.25 13.28125 -3.25 L 6.171875 -3.25 C 6.078125 -3.25 6.019531 -3.203125 6 -3.109375 L 5.1875 -0.40625 C 5.09375 -0.132812 4.910156 0 4.640625 0 L 1.28125 0 C 1.101562 0 0.972656 -0.0507812 0.890625 -0.15625 C 0.816406 -0.257812 0.8125 -0.390625 0.875 -0.546875 L 7.046875 -19.890625 C 7.140625 -20.160156 7.320312 -20.296875 7.59375 -20.296875 L 11.859375 -20.296875 C 12.128906 -20.296875 12.3125 -20.160156 12.40625 -19.890625 L 18.59375 -0.546875 C 18.613281 -0.515625 18.625 -0.457031 18.625 -0.375 C 18.625 -0.257812 18.582031 -0.164062 18.5 -0.09375 C 18.425781 -0.03125 18.320312 0 18.1875 0 Z M 7.015625 -6.609375 C 6.992188 -6.472656 7.039062 -6.40625 7.15625 -6.40625 L 12.296875 -6.40625 C 12.410156 -6.40625 12.457031 -6.472656 12.4375 -6.609375 L 9.828125 -15.453125 C 9.804688 -15.535156 9.769531 -15.578125 9.71875 -15.578125 C 9.675781 -15.578125 9.632812 -15.535156 9.59375 -15.453125 Z M 7.015625 -6.609375 "/></g></g></g><g fill="#444444" fill-opacity="1"><g transform="translate(181.084042, 256.557523)"><g><path d="M 10.203125 -14.40625 C 10.203125 -14.738281 10.367188 -14.90625 10.703125 -14.90625 L 13.796875 -14.90625 C 14.128906 -14.90625 14.296875 -14.738281 14.296875 -14.40625 L 14.296875 -0.5 C 14.296875 -0.164062 14.128906 0 13.796875 0 L 10.703125 0 C 10.367188 0 10.203125 -0.164062 10.203125 -0.5 L 10.203125 -1.28125 C 10.203125 -1.351562 10.175781 -1.394531 10.125 -1.40625 C 10.082031 -1.414062 10.039062 -1.390625 10 -1.328125 C 9.25 -0.304688 8.0625 0.203125 6.4375 0.203125 C 4.96875 0.203125 3.757812 -0.238281 2.8125 -1.125 C 1.863281 -2.019531 1.390625 -3.269531 1.390625 -4.875 L 1.390625 -14.40625 C 1.390625 -14.738281 1.554688 -14.90625 1.890625 -14.90625 L 4.953125 -14.90625 C 5.285156 -14.90625 5.453125 -14.738281 5.453125 -14.40625 L 5.453125 -5.890625 C 5.453125 -5.117188 5.660156 -4.488281 6.078125 -4 C 6.492188 -3.519531 7.066406 -3.28125 7.796875 -3.28125 C 8.453125 -3.28125 8.992188 -3.476562 9.421875 -3.875 C 9.847656 -4.269531 10.109375 -4.785156 10.203125 -5.421875 Z M 10.203125 -14.40625 "/></g></g></g><g fill="#444444" fill-opacity="1"><g transform="translate(196.884772, 256.557523)"><g><path d="M 10.0625 -12.125 C 10.0625 -11.789062 9.894531 -11.625 9.5625 -11.625 L 6.953125 -11.625 C 6.835938 -11.625 6.78125 -11.566406 6.78125 -11.453125 L 6.78125 -5.453125 C 6.78125 -4.816406 6.910156 -4.347656 7.171875 -4.046875 C 7.429688 -3.742188 7.851562 -3.59375 8.4375 -3.59375 L 9.25 -3.59375 C 9.582031 -3.59375 9.75 -3.429688 9.75 -3.109375 L 9.75 -0.609375 C 9.75 -0.296875 9.582031 -0.125 9.25 -0.09375 C 8.519531 -0.0507812 7.988281 -0.03125 7.65625 -0.03125 C 6.050781 -0.03125 4.851562 -0.300781 4.0625 -0.84375 C 3.269531 -1.382812 2.863281 -2.390625 2.84375 -3.859375 L 2.84375 -11.453125 C 2.84375 -11.566406 2.785156 -11.625 2.671875 -11.625 L 1.1875 -11.625 C 0.863281 -11.625 0.703125 -11.789062 0.703125 -12.125 L 0.703125 -14.40625 C 0.703125 -14.738281 0.863281 -14.90625 1.1875 -14.90625 L 2.671875 -14.90625 C 2.785156 -14.90625 2.84375 -14.960938 2.84375 -15.078125 L 2.84375 -18.359375 C 2.84375 -18.679688 3.003906 -18.84375 3.328125 -18.84375 L 6.296875 -18.84375 C 6.617188 -18.84375 6.78125 -18.679688 6.78125 -18.359375 L 6.78125 -15.078125 C 6.78125 -14.960938 6.835938 -14.90625 6.953125 -14.90625 L 9.5625 -14.90625 C 9.894531 -14.90625 10.0625 -14.738281 10.0625 -14.40625 Z M 10.0625 -12.125 "/></g></g></g><g fill="#444444" fill-opacity="1"><g transform="translate(207.901804, 256.557523)"><g><path d="M 8.125 0.234375 C 6.476562 0.234375 5.070312 -0.1875 3.90625 -1.03125 C 2.75 -1.882812 1.957031 -3.050781 1.53125 -4.53125 C 1.257812 -5.4375 1.125 -6.421875 1.125 -7.484375 C 1.125 -8.660156 1.269531 -9.6875 1.5625 -10.5625 C 2.007812 -11.988281 2.804688 -13.109375 3.953125 -13.921875 C 5.109375 -14.734375 6.507812 -15.140625 8.15625 -15.140625 C 9.738281 -15.140625 11.09375 -14.734375 12.21875 -13.921875 C 13.351562 -13.109375 14.144531 -11.992188 14.59375 -10.578125 C 14.875 -9.691406 15.015625 -8.679688 15.015625 -7.546875 C 15.015625 -6.535156 14.890625 -5.554688 14.640625 -4.609375 C 14.203125 -3.097656 13.40625 -1.910156 12.25 -1.046875 C 11.101562 -0.191406 9.726562 0.234375 8.125 0.234375 Z M 8.125 -3.28125 C 8.738281 -3.28125 9.265625 -3.472656 9.703125 -3.859375 C 10.148438 -4.242188 10.472656 -4.773438 10.671875 -5.453125 C 10.828125 -5.972656 10.90625 -6.648438 10.90625 -7.484375 C 10.90625 -8.296875 10.828125 -8.984375 10.671875 -9.546875 C 10.472656 -10.203125 10.148438 -10.710938 9.703125 -11.078125 C 9.265625 -11.441406 8.71875 -11.625 8.0625 -11.625 C 7.425781 -11.625 6.882812 -11.441406 6.4375 -11.078125 C 5.988281 -10.710938 5.671875 -10.203125 5.484375 -9.546875 C 5.328125 -8.984375 5.25 -8.296875 5.25 -7.484375 C 5.25 -6.691406 5.328125 -6.015625 5.484375 -5.453125 C 5.671875 -4.773438 5.992188 -4.242188 6.453125 -3.859375 C 6.910156 -3.472656 7.46875 -3.28125 8.125 -3.28125 Z M 8.125 -3.28125 "/></g></g></g><g fill="#444444" fill-opacity="1"><g transform="translate(224.050447, 256.557523)"><g><path d="M 6.203125 0 C 5.890625 0 5.707031 -0.144531 5.65625 -0.4375 L 0.546875 -19.75 C 0.523438 -19.789062 0.515625 -19.835938 0.515625 -19.890625 C 0.515625 -20.160156 0.671875 -20.296875 0.984375 -20.296875 L 4.296875 -20.296875 C 4.585938 -20.296875 4.757812 -20.148438 4.8125 -19.859375 L 7.546875 -8.296875 C 7.554688 -8.210938 7.59375 -8.171875 7.65625 -8.171875 C 7.71875 -8.171875 7.753906 -8.210938 7.765625 -8.296875 L 10.375 -19.859375 C 10.4375 -20.148438 10.613281 -20.296875 10.90625 -20.296875 L 14.1875 -20.296875 C 14.488281 -20.296875 14.671875 -20.148438 14.734375 -19.859375 L 17.578125 -8.296875 C 17.597656 -8.210938 17.628906 -8.171875 17.671875 -8.171875 C 17.722656 -8.171875 17.757812 -8.210938 17.78125 -8.296875 L 20.390625 -19.859375 C 20.441406 -20.148438 20.613281 -20.296875 20.90625 -20.296875 L 24.0625 -20.296875 C 24.238281 -20.296875 24.359375 -20.242188 24.421875 -20.140625 C 24.492188 -20.035156 24.507812 -19.90625 24.46875 -19.75 L 19.8125 -0.4375 C 19.75 -0.144531 19.5625 0 19.25 0 L 16.0625 0 C 15.757812 0 15.578125 -0.144531 15.515625 -0.4375 L 12.609375 -12.765625 C 12.597656 -12.835938 12.5625 -12.875 12.5 -12.875 C 12.4375 -12.875 12.398438 -12.835938 12.390625 -12.765625 L 9.6875 -0.4375 C 9.625 -0.144531 9.445312 0 9.15625 0 Z M 6.203125 0 "/></g></g></g><g fill="#444444" fill-opacity="1"><g transform="translate(249.070697, 256.557523)"><g><path d="M 8.125 0.234375 C 6.476562 0.234375 5.070312 -0.1875 3.90625 -1.03125 C 2.75 -1.882812 1.957031 -3.050781 1.53125 -4.53125 C 1.257812 -5.4375 1.125 -6.421875 1.125 -7.484375 C 1.125 -8.660156 1.269531 -9.6875 1.5625 -10.5625 C 2.007812 -11.988281 2.804688 -13.109375 3.953125 -13.921875 C 5.109375 -14.734375 6.507812 -15.140625 8.15625 -15.140625 C 9.738281 -15.140625 11.09375 -14.734375 12.21875 -13.921875 C 13.351562 -13.109375 14.144531 -11.992188 14.59375 -10.578125 C 14.875 -9.691406 15.015625 -8.679688 15.015625 -7.546875 C 15.015625 -6.535156 14.890625 -5.554688 14.640625 -4.609375 C 14.203125 -3.097656 13.40625 -1.910156 12.25 -1.046875 C 11.101562 -0.191406 9.726562 0.234375 8.125 0.234375 Z M 8.125 -3.28125 C 8.738281 -3.28125 9.265625 -3.472656 9.703125 -3.859375 C 10.148438 -4.242188 10.472656 -4.773438 10.671875 -5.453125 C 10.828125 -5.972656 10.90625 -6.648438 10.90625 -7.484375 C 10.90625 -8.296875 10.828125 -8.984375 10.671875 -9.546875 C 10.472656 -10.203125 10.148438 -10.710938 9.703125 -11.078125 C 9.265625 -11.441406 8.71875 -11.625 8.0625 -11.625 C 7.425781 -11.625 6.882812 -11.441406 6.4375 -11.078125 C 5.988281 -10.710938 5.671875 -10.203125 5.484375 -9.546875 C 5.328125 -8.984375 5.25 -8.296875 5.25 -7.484375 C 5.25 -6.691406 5.328125 -6.015625 5.484375 -5.453125 C 5.671875 -4.773438 5.992188 -4.242188 6.453125 -3.859375 C 6.910156 -3.472656 7.46875 -3.28125 8.125 -3.28125 Z M 8.125 -3.28125 "/></g></g></g><g fill="#444444" fill-opacity="1"><g transform="translate(265.219328, 256.557523)"><g><path d="M 8.9375 -15.109375 C 9.550781 -15.109375 10.0625 -14.992188 10.46875 -14.765625 C 10.695312 -14.648438 10.785156 -14.445312 10.734375 -14.15625 L 10.171875 -11.109375 C 10.160156 -10.929688 10.109375 -10.820312 10.015625 -10.78125 C 9.929688 -10.75 9.789062 -10.75 9.59375 -10.78125 C 9.289062 -10.863281 9.015625 -10.90625 8.765625 -10.90625 C 8.628906 -10.90625 8.40625 -10.882812 8.09375 -10.84375 C 7.394531 -10.789062 6.800781 -10.535156 6.3125 -10.078125 C 5.832031 -9.617188 5.59375 -9.015625 5.59375 -8.265625 L 5.59375 -0.5 C 5.59375 -0.164062 5.429688 0 5.109375 0 L 2 0 C 1.675781 0 1.515625 -0.164062 1.515625 -0.5 L 1.515625 -14.40625 C 1.515625 -14.738281 1.675781 -14.90625 2 -14.90625 L 5.109375 -14.90625 C 5.429688 -14.90625 5.59375 -14.738281 5.59375 -14.40625 L 5.59375 -13.515625 C 5.59375 -13.429688 5.613281 -13.378906 5.65625 -13.359375 C 5.695312 -13.347656 5.742188 -13.367188 5.796875 -13.421875 C 6.566406 -14.546875 7.613281 -15.109375 8.9375 -15.109375 Z M 8.9375 -15.109375 "/></g></g></g><g fill="#444444" fill-opacity="1"><g transform="translate(276.323346, 256.557523)"><g><path d="M 2 0 C 1.675781 0 1.515625 -0.164062 1.515625 -0.5 L 1.515625 -19.8125 C 1.515625 -20.132812 1.675781 -20.296875 2 -20.296875 L 5.109375 -20.296875 C 5.429688 -20.296875 5.59375 -20.132812 5.59375 -19.8125 L 5.59375 -10.234375 C 5.59375 -10.160156 5.613281 -10.117188 5.65625 -10.109375 C 5.707031 -10.097656 5.753906 -10.117188 5.796875 -10.171875 L 9.65625 -14.609375 C 9.851562 -14.804688 10.054688 -14.90625 10.265625 -14.90625 L 13.78125 -14.90625 C 13.914062 -14.90625 14.019531 -14.878906 14.09375 -14.828125 C 14.164062 -14.785156 14.203125 -14.710938 14.203125 -14.609375 C 14.203125 -14.492188 14.164062 -14.390625 14.09375 -14.296875 L 10.53125 -9.828125 C 10.46875 -9.773438 10.457031 -9.695312 10.5 -9.59375 L 14.765625 -0.578125 L 14.8125 -0.34375 C 14.8125 -0.113281 14.671875 0 14.390625 0 L 11.109375 0 C 10.835938 0 10.644531 -0.125 10.53125 -0.375 L 7.71875 -7.015625 C 7.65625 -7.128906 7.578125 -7.140625 7.484375 -7.046875 L 5.6875 -4.75 C 5.625 -4.675781 5.59375 -4.609375 5.59375 -4.546875 L 5.59375 -0.5 C 5.59375 -0.164062 5.429688 0 5.109375 0 Z M 2 0 "/></g></g></g><g fill="#444444" fill-opacity="1"><g transform="translate(291.776165, 256.557523)"><g><path d="M 7.453125 0.203125 C 6.160156 0.203125 5.03125 0.0195312 4.0625 -0.34375 C 3.09375 -0.71875 2.347656 -1.234375 1.828125 -1.890625 C 1.304688 -2.546875 1.046875 -3.289062 1.046875 -4.125 L 1.046875 -4.265625 C 1.046875 -4.585938 1.207031 -4.75 1.53125 -4.75 L 4.46875 -4.75 C 4.789062 -4.75 4.953125 -4.691406 4.953125 -4.578125 L 4.953125 -4.375 C 4.953125 -3.945312 5.179688 -3.582031 5.640625 -3.28125 C 6.109375 -2.988281 6.703125 -2.84375 7.421875 -2.84375 C 8.078125 -2.84375 8.609375 -2.96875 9.015625 -3.21875 C 9.421875 -3.46875 9.625 -3.796875 9.625 -4.203125 C 9.625 -4.554688 9.445312 -4.816406 9.09375 -4.984375 C 8.75 -5.160156 8.179688 -5.34375 7.390625 -5.53125 C 6.441406 -5.789062 5.738281 -6.015625 5.28125 -6.203125 C 4.019531 -6.628906 3.019531 -7.148438 2.28125 -7.765625 C 1.550781 -8.390625 1.1875 -9.28125 1.1875 -10.4375 C 1.1875 -11.875 1.742188 -13.007812 2.859375 -13.84375 C 3.984375 -14.6875 5.457031 -15.109375 7.28125 -15.109375 C 8.519531 -15.109375 9.609375 -14.910156 10.546875 -14.515625 C 11.484375 -14.117188 12.207031 -13.5625 12.71875 -12.84375 C 13.226562 -12.132812 13.484375 -11.320312 13.484375 -10.40625 C 13.484375 -10.3125 13.4375 -10.226562 13.34375 -10.15625 C 13.257812 -10.09375 13.140625 -10.0625 12.984375 -10.0625 L 10.15625 -10.0625 C 9.820312 -10.0625 9.65625 -10.117188 9.65625 -10.234375 L 9.65625 -10.40625 C 9.65625 -10.832031 9.441406 -11.191406 9.015625 -11.484375 C 8.585938 -11.773438 8.019531 -11.921875 7.3125 -11.921875 C 6.664062 -11.921875 6.132812 -11.800781 5.71875 -11.5625 C 5.3125 -11.332031 5.109375 -11.015625 5.109375 -10.609375 C 5.109375 -10.222656 5.304688 -9.929688 5.703125 -9.734375 C 6.097656 -9.546875 6.75 -9.347656 7.65625 -9.140625 C 8.21875 -9.023438 8.757812 -8.878906 9.28125 -8.703125 C 10.675781 -8.296875 11.769531 -7.769531 12.5625 -7.125 C 13.351562 -6.488281 13.75 -5.5625 13.75 -4.34375 C 13.75 -2.914062 13.175781 -1.800781 12.03125 -1 C 10.894531 -0.195312 9.367188 0.203125 7.453125 0.203125 Z M 7.453125 0.203125 "/></g></g></g><g fill="#444444" fill-opacity="1"><g transform="translate(163.772117, 271.832032)"><g><path d="M 3.671875 0.09375 C 3.035156 0.09375 2.476562 0.00390625 2 -0.171875 C 1.519531 -0.347656 1.148438 -0.597656 0.890625 -0.921875 C 0.640625 -1.242188 0.515625 -1.613281 0.515625 -2.03125 L 0.515625 -2.09375 C 0.515625 -2.257812 0.59375 -2.34375 0.75 -2.34375 L 2.203125 -2.34375 C 2.359375 -2.34375 2.4375 -2.3125 2.4375 -2.25 L 2.4375 -2.15625 C 2.4375 -1.945312 2.550781 -1.769531 2.78125 -1.625 C 3.007812 -1.476562 3.300781 -1.40625 3.65625 -1.40625 C 3.976562 -1.40625 4.238281 -1.460938 4.4375 -1.578125 C 4.632812 -1.703125 4.734375 -1.867188 4.734375 -2.078125 C 4.734375 -2.242188 4.648438 -2.367188 4.484375 -2.453125 C 4.316406 -2.535156 4.035156 -2.628906 3.640625 -2.734375 C 3.171875 -2.847656 2.820312 -2.957031 2.59375 -3.0625 C 1.976562 -3.269531 1.488281 -3.523438 1.125 -3.828125 C 0.757812 -4.128906 0.578125 -4.566406 0.578125 -5.140625 C 0.578125 -5.847656 0.851562 -6.40625 1.40625 -6.8125 C 1.957031 -7.226562 2.679688 -7.4375 3.578125 -7.4375 C 4.191406 -7.4375 4.726562 -7.335938 5.1875 -7.140625 C 5.65625 -6.953125 6.015625 -6.679688 6.265625 -6.328125 C 6.515625 -5.972656 6.640625 -5.570312 6.640625 -5.125 C 6.640625 -5.082031 6.617188 -5.039062 6.578125 -5 C 6.535156 -4.96875 6.472656 -4.953125 6.390625 -4.953125 L 5 -4.953125 C 4.832031 -4.953125 4.75 -4.984375 4.75 -5.046875 L 4.75 -5.125 C 4.75 -5.332031 4.644531 -5.507812 4.4375 -5.65625 C 4.226562 -5.800781 3.945312 -5.875 3.59375 -5.875 C 3.28125 -5.875 3.019531 -5.816406 2.8125 -5.703125 C 2.613281 -5.585938 2.515625 -5.429688 2.515625 -5.234375 C 2.515625 -5.035156 2.609375 -4.890625 2.796875 -4.796875 C 2.992188 -4.703125 3.316406 -4.601562 3.765625 -4.5 C 4.046875 -4.4375 4.3125 -4.363281 4.5625 -4.28125 C 5.25 -4.082031 5.785156 -3.828125 6.171875 -3.515625 C 6.566406 -3.203125 6.765625 -2.742188 6.765625 -2.140625 C 6.765625 -1.429688 6.484375 -0.878906 5.921875 -0.484375 C 5.359375 -0.0976562 4.609375 0.09375 3.671875 0.09375 Z M 3.671875 0.09375 "/></g></g></g><g fill="#444444" fill-opacity="1"><g transform="translate(171.014697, 271.832032)"><g><path d="M 4.28125 -1.578125 C 4.914062 -1.609375 5.398438 -1.828125 5.734375 -2.234375 C 5.785156 -2.304688 5.84375 -2.34375 5.90625 -2.34375 C 5.96875 -2.34375 6.019531 -2.316406 6.0625 -2.265625 L 6.890625 -1.484375 C 6.941406 -1.429688 6.96875 -1.375 6.96875 -1.3125 C 6.96875 -1.25 6.945312 -1.191406 6.90625 -1.140625 C 6.59375 -0.753906 6.191406 -0.445312 5.703125 -0.21875 C 5.210938 0 4.675781 0.109375 4.09375 0.109375 C 3.21875 0.109375 2.492188 -0.113281 1.921875 -0.5625 C 1.347656 -1.007812 0.957031 -1.625 0.75 -2.40625 C 0.632812 -2.820312 0.578125 -3.265625 0.578125 -3.734375 C 0.578125 -4.285156 0.632812 -4.75 0.75 -5.125 C 0.9375 -5.832031 1.316406 -6.398438 1.890625 -6.828125 C 2.460938 -7.253906 3.144531 -7.46875 3.9375 -7.46875 C 4.875 -7.46875 5.613281 -7.191406 6.15625 -6.640625 C 6.707031 -6.085938 7.0625 -5.3125 7.21875 -4.3125 C 7.257812 -4 7.289062 -3.648438 7.3125 -3.265625 C 7.3125 -3.109375 7.226562 -3.03125 7.0625 -3.03125 L 2.6875 -3.03125 C 2.625 -3.03125 2.59375 -3 2.59375 -2.9375 C 2.625 -2.738281 2.660156 -2.59375 2.703125 -2.5 C 2.796875 -2.207031 2.984375 -1.976562 3.265625 -1.8125 C 3.546875 -1.65625 3.882812 -1.578125 4.28125 -1.578125 Z M 3.90625 -5.734375 C 3.601562 -5.734375 3.347656 -5.65625 3.140625 -5.5 C 2.941406 -5.351562 2.804688 -5.148438 2.734375 -4.890625 C 2.679688 -4.703125 2.648438 -4.582031 2.640625 -4.53125 C 2.628906 -4.46875 2.65625 -4.4375 2.71875 -4.4375 L 5.140625 -4.4375 C 5.191406 -4.4375 5.21875 -4.457031 5.21875 -4.5 C 5.21875 -4.601562 5.195312 -4.710938 5.15625 -4.828125 C 5.070312 -5.097656 4.925781 -5.316406 4.71875 -5.484375 C 4.507812 -5.648438 4.238281 -5.734375 3.90625 -5.734375 Z M 3.90625 -5.734375 "/></g></g></g><g fill="#444444" fill-opacity="1"><g transform="translate(178.885821, 271.832032)"><g><path d="M 4.40625 -7.4375 C 4.707031 -7.4375 4.957031 -7.378906 5.15625 -7.265625 C 5.269531 -7.210938 5.3125 -7.113281 5.28125 -6.96875 L 5.015625 -5.46875 C 5.003906 -5.382812 4.976562 -5.332031 4.9375 -5.3125 C 4.894531 -5.289062 4.828125 -5.289062 4.734375 -5.3125 C 4.578125 -5.351562 4.4375 -5.375 4.3125 -5.375 C 4.25 -5.375 4.140625 -5.363281 3.984375 -5.34375 C 3.640625 -5.3125 3.347656 -5.179688 3.109375 -4.953125 C 2.867188 -4.734375 2.75 -4.4375 2.75 -4.0625 L 2.75 -0.25 C 2.75 -0.0820312 2.671875 0 2.515625 0 L 0.984375 0 C 0.828125 0 0.75 -0.0820312 0.75 -0.25 L 0.75 -7.09375 C 0.75 -7.257812 0.828125 -7.34375 0.984375 -7.34375 L 2.515625 -7.34375 C 2.671875 -7.34375 2.75 -7.257812 2.75 -7.09375 L 2.75 -6.65625 C 2.75 -6.613281 2.757812 -6.585938 2.78125 -6.578125 C 2.800781 -6.566406 2.828125 -6.578125 2.859375 -6.609375 C 3.234375 -7.160156 3.75 -7.4375 4.40625 -7.4375 Z M 4.40625 -7.4375 "/></g></g></g><g fill="#444444" fill-opacity="1"><g transform="translate(184.414191, 271.832032)"><g><path d="M 2.84375 0 C 2.707031 0 2.617188 -0.0664062 2.578125 -0.203125 L 0.359375 -7.0625 C 0.347656 -7.082031 0.34375 -7.113281 0.34375 -7.15625 C 0.34375 -7.207031 0.359375 -7.25 0.390625 -7.28125 C 0.429688 -7.320312 0.488281 -7.34375 0.5625 -7.34375 L 2.234375 -7.34375 C 2.367188 -7.34375 2.460938 -7.269531 2.515625 -7.125 L 3.65625 -2.84375 C 3.664062 -2.800781 3.679688 -2.78125 3.703125 -2.78125 C 3.734375 -2.78125 3.753906 -2.800781 3.765625 -2.84375 L 4.90625 -7.125 C 4.957031 -7.269531 5.050781 -7.34375 5.1875 -7.34375 L 6.875 -7.328125 C 6.957031 -7.328125 7.015625 -7.300781 7.046875 -7.25 C 7.085938 -7.195312 7.09375 -7.132812 7.0625 -7.0625 L 4.875 -0.203125 C 4.820312 -0.0664062 4.722656 0 4.578125 0 Z M 2.84375 0 "/></g></g></g><g fill="#444444" fill-opacity="1"><g transform="translate(191.899615, 271.832032)"><g><path d="M 1.859375 -8.046875 C 1.492188 -8.046875 1.195312 -8.15625 0.96875 -8.375 C 0.738281 -8.601562 0.625 -8.890625 0.625 -9.234375 C 0.625 -9.585938 0.738281 -9.875 0.96875 -10.09375 C 1.195312 -10.320312 1.492188 -10.4375 1.859375 -10.4375 C 2.222656 -10.4375 2.515625 -10.328125 2.734375 -10.109375 C 2.960938 -9.890625 3.078125 -9.597656 3.078125 -9.234375 C 3.078125 -8.878906 2.960938 -8.59375 2.734375 -8.375 C 2.515625 -8.15625 2.222656 -8.046875 1.859375 -8.046875 Z M 1.09375 0 C 0.9375 0 0.859375 -0.0820312 0.859375 -0.25 L 0.859375 -7.09375 C 0.859375 -7.257812 0.9375 -7.34375 1.09375 -7.34375 L 2.625 -7.34375 C 2.789062 -7.34375 2.875 -7.257812 2.875 -7.09375 L 2.875 -0.25 C 2.875 -0.0820312 2.789062 0 2.625 0 Z M 1.09375 0 "/></g></g></g><g fill="#444444" fill-opacity="1"><g transform="translate(195.670918, 271.832032)"><g><path d="M 3.96875 0.109375 C 3.207031 0.109375 2.546875 -0.078125 1.984375 -0.453125 C 1.429688 -0.835938 1.035156 -1.363281 0.796875 -2.03125 C 0.640625 -2.5 0.5625 -3.0625 0.5625 -3.71875 C 0.5625 -4.351562 0.640625 -4.90625 0.796875 -5.375 C 1.023438 -6.019531 1.421875 -6.523438 1.984375 -6.890625 C 2.546875 -7.265625 3.207031 -7.453125 3.96875 -7.453125 C 4.726562 -7.453125 5.394531 -7.257812 5.96875 -6.875 C 6.550781 -6.5 6.9375 -6.019531 7.125 -5.4375 C 7.1875 -5.300781 7.222656 -5.15625 7.234375 -5 L 7.234375 -4.96875 C 7.234375 -4.84375 7.164062 -4.765625 7.03125 -4.734375 L 5.53125 -4.515625 L 5.453125 -4.5 C 5.335938 -4.5 5.269531 -4.554688 5.25 -4.671875 L 5.21875 -4.875 C 5.144531 -5.113281 4.992188 -5.316406 4.765625 -5.484375 C 4.535156 -5.648438 4.265625 -5.734375 3.953125 -5.734375 C 3.648438 -5.734375 3.394531 -5.65625 3.1875 -5.5 C 2.976562 -5.34375 2.828125 -5.132812 2.734375 -4.875 C 2.628906 -4.582031 2.578125 -4.191406 2.578125 -3.703125 C 2.578125 -3.203125 2.628906 -2.8125 2.734375 -2.53125 C 2.816406 -2.238281 2.960938 -2.007812 3.171875 -1.84375 C 3.390625 -1.6875 3.648438 -1.609375 3.953125 -1.609375 C 4.253906 -1.609375 4.515625 -1.6875 4.734375 -1.84375 C 4.953125 -2 5.109375 -2.210938 5.203125 -2.484375 L 5.21875 -2.5625 C 5.226562 -2.59375 5.257812 -2.632812 5.3125 -2.6875 C 5.363281 -2.738281 5.425781 -2.757812 5.5 -2.75 L 7 -2.53125 C 7.070312 -2.507812 7.125 -2.472656 7.15625 -2.421875 C 7.195312 -2.378906 7.210938 -2.320312 7.203125 -2.25 C 7.179688 -2.101562 7.15625 -1.992188 7.125 -1.921875 C 6.925781 -1.285156 6.535156 -0.785156 5.953125 -0.421875 C 5.378906 -0.0664062 4.71875 0.109375 3.96875 0.109375 Z M 3.96875 0.109375 "/></g></g></g><g fill="#444444" fill-opacity="1"><g transform="translate(203.399187, 271.832032)"><g><path d="M 4.28125 -1.578125 C 4.914062 -1.609375 5.398438 -1.828125 5.734375 -2.234375 C 5.785156 -2.304688 5.84375 -2.34375 5.90625 -2.34375 C 5.96875 -2.34375 6.019531 -2.316406 6.0625 -2.265625 L 6.890625 -1.484375 C 6.941406 -1.429688 6.96875 -1.375 6.96875 -1.3125 C 6.96875 -1.25 6.945312 -1.191406 6.90625 -1.140625 C 6.59375 -0.753906 6.191406 -0.445312 5.703125 -0.21875 C 5.210938 0 4.675781 0.109375 4.09375 0.109375 C 3.21875 0.109375 2.492188 -0.113281 1.921875 -0.5625 C 1.347656 -1.007812 0.957031 -1.625 0.75 -2.40625 C 0.632812 -2.820312 0.578125 -3.265625 0.578125 -3.734375 C 0.578125 -4.285156 0.632812 -4.75 0.75 -5.125 C 0.9375 -5.832031 1.316406 -6.398438 1.890625 -6.828125 C 2.460938 -7.253906 3.144531 -7.46875 3.9375 -7.46875 C 4.875 -7.46875 5.613281 -7.191406 6.15625 -6.640625 C 6.707031 -6.085938 7.0625 -5.3125 7.21875 -4.3125 C 7.257812 -4 7.289062 -3.648438 7.3125 -3.265625 C 7.3125 -3.109375 7.226562 -3.03125 7.0625 -3.03125 L 2.6875 -3.03125 C 2.625 -3.03125 2.59375 -3 2.59375 -2.9375 C 2.625 -2.738281 2.660156 -2.59375 2.703125 -2.5 C 2.796875 -2.207031 2.984375 -1.976562 3.265625 -1.8125 C 3.546875 -1.65625 3.882812 -1.578125 4.28125 -1.578125 Z M 3.90625 -5.734375 C 3.601562 -5.734375 3.347656 -5.65625 3.140625 -5.5 C 2.941406 -5.351562 2.804688 -5.148438 2.734375 -4.890625 C 2.679688 -4.703125 2.648438 -4.582031 2.640625 -4.53125 C 2.628906 -4.46875 2.65625 -4.4375 2.71875 -4.4375 L 5.140625 -4.4375 C 5.191406 -4.4375 5.21875 -4.457031 5.21875 -4.5 C 5.21875 -4.601562 5.195312 -4.710938 5.15625 -4.828125 C 5.070312 -5.097656 4.925781 -5.316406 4.71875 -5.484375 C 4.507812 -5.648438 4.238281 -5.734375 3.90625 -5.734375 Z M 3.90625 -5.734375 "/></g></g></g></svg>