<svg xmlns="http://www.w3.org/2000/svg" xmlns:xlink="http://www.w3.org/1999/xlink" width="500" zoomAndPan="magnify" viewBox="0 0 375 374.999991" height="500" preserveAspectRatio="xMidYMid meet" version="1.0"><defs><g/><clipPath id="8fce2f49bd"><path d="M 26.265625 132.609375 L 308 132.609375 L 308 209 L 26.265625 209 Z M 26.265625 132.609375 " clip-rule="nonzero"/></clipPath><clipPath id="3f3628e6f9"><path d="M 57 169 L 109 169 L 109 219.609375 L 57 219.609375 Z M 57 169 " clip-rule="nonzero"/></clipPath><clipPath id="24f5e32135"><path d="M 231 169 L 284 169 L 284 219.609375 L 231 219.609375 Z M 231 169 " clip-rule="nonzero"/></clipPath><clipPath id="966902a5ee"><path d="M 26 44 L 316 44 L 316 163 L 26 163 Z M 26 44 " clip-rule="nonzero"/></clipPath><clipPath id="828e1487af"><path d="M 18.773438 53.457031 L 309.335938 37.507812 L 315.335938 146.84375 L 24.773438 162.792969 Z M 18.773438 53.457031 " clip-rule="nonzero"/></clipPath><clipPath id="a3112e370a"><path d="M 18.773438 53.457031 L 309.335938 37.507812 L 325.242188 327.324219 L 34.679688 343.273438 Z M 18.773438 53.457031 " clip-rule="nonzero"/></clipPath></defs><g clip-path="url(#8fce2f49bd)"><path fill="#444444" d="M 307.511719 189.015625 C 305.964844 186.671875 306.808594 183.617188 307.066406 181.015625 C 307.027344 180.601562 307.605469 179.253906 306.90625 179.308594 C 303.769531 180.304688 300.421875 181.269531 297.175781 181.425781 C 299.136719 180.320312 301.789062 180.035156 303.4375 178.296875 C 304.894531 176.871094 304.136719 177.328125 305.703125 177.578125 C 305.726562 177.308594 305.535156 177.132812 305.386719 176.945312 C 304.207031 175.371094 304.3125 173.265625 304.238281 171.390625 C 304.253906 170.632812 304.25 169.871094 304.238281 169.113281 C 304.136719 168.578125 304.472656 167.316406 303.695312 167.269531 C 302.738281 167.347656 301.789062 167.5 300.832031 167.582031 C 300.457031 167.613281 300.222656 167.386719 300.128906 166.9375 C 300.160156 166.175781 302.40625 166.324219 303.019531 166.144531 C 303.230469 166.117188 303.390625 165.890625 303.328125 165.71875 C 302.527344 163.476562 301.796875 161.207031 300.902344 159.003906 C 300.140625 157.292969 300.507812 155.640625 301.320312 154.0625 C 301.863281 152.941406 300.550781 153.164062 299.941406 153.523438 C 297.304688 154.71875 294.3125 153.949219 291.5625 153.613281 C 284.65625 152.613281 277.824219 150.972656 270.882812 150.371094 C 273.234375 149.96875 275.78125 150.886719 278.191406 150.832031 C 278.25 150.835938 278.398438 150.757812 278.34375 150.675781 C 278.082031 150.417969 277.722656 150.378906 277.390625 150.273438 C 255.460938 143.484375 233.65625 135.605469 210.648438 133.460938 C 203.003906 132.59375 195.265625 132.210938 187.609375 133.167969 C 168.882812 135.339844 151.574219 144.265625 135.953125 154.417969 C 133.707031 155.941406 130.964844 156.40625 128.304688 156.617188 C 123.953125 157.039062 119.601562 156.730469 115.242188 156.632812 C 103.402344 156.515625 91.5 157.359375 79.886719 159.730469 C 64.226562 163.054688 47.371094 165.652344 34.847656 176.457031 C 33.8125 177.21875 32.820312 178.257812 31.496094 178.445312 C 31.367188 178.421875 31.15625 178.316406 31.25 178.152344 C 31.5625 177.519531 31.917969 176.914062 32.304688 176.324219 C 32.234375 176.121094 31.941406 176.300781 31.832031 176.375 C 30.492188 177.6875 29.589844 179.238281 29.332031 181.125 C 29.269531 181.574219 29.199219 182.027344 29.15625 182.480469 C 29.058594 183.503906 29.085938 183.546875 30.078125 183.886719 C 32.304688 184.542969 30.722656 184.886719 29.527344 185 C 29.144531 185.050781 29.035156 185.503906 29.078125 185.835938 C 29.210938 186.941406 29.335938 188.046875 29.480469 189.15625 C 29.589844 189.957031 30.910156 189.960938 31.484375 190.332031 C 31.664062 190.40625 31.839844 190.519531 32.007812 190.628906 C 32.144531 190.703125 32.050781 190.921875 31.972656 190.964844 C 31.382812 191.128906 30.792969 191.269531 30.210938 191.433594 C 29.855469 191.53125 29.695312 191.777344 29.753906 192.105469 C 30.042969 193.75 30.347656 195.390625 30.621094 197.039062 C 30.722656 197.679688 30.558594 198.242188 30.109375 198.71875 C 29.3125 199.574219 28.535156 200.433594 27.734375 201.277344 C 25.441406 203.394531 26.601562 203.277344 29.015625 204.039062 C 36.128906 205.867188 43.453125 206.707031 50.707031 207.761719 C 52.613281 208.015625 54.523438 208.261719 56.429688 208.503906 C 57.136719 208.554688 56.828125 208.097656 56.660156 207.703125 C 50.003906 194.6875 54.117188 179.070312 66.082031 170.847656 C 74.007812 165.085938 84.238281 165.164062 93.582031 163.894531 C 105.03125 162.804688 140.011719 161.75 143.253906 161.710938 C 157.136719 161.480469 171.023438 161.351562 184.902344 161.742188 C 188.851562 161.75 192.800781 162.050781 196.75 162.167969 C 197.171875 162.1875 197.613281 162.136719 197.863281 161.785156 C 198.199219 161.335938 199.925781 161.140625 201.003906 161.007812 C 203.625 160.753906 206.253906 160.546875 208.878906 160.34375 C 211.746094 160.097656 208.25 162.890625 209.394531 163.132812 C 210.449219 163.246094 211.507812 163.316406 212.5625 163.398438 C 212.640625 163.433594 212.609375 163.570312 212.539062 163.597656 C 185.054688 166.105469 126.835938 171.429688 125.269531 171.476562 C 125.230469 171.476562 125.171875 171.433594 125.15625 171.394531 C 125.144531 171.351562 125.15625 171.277344 125.191406 171.253906 C 125.988281 170.59375 126.933594 170.238281 127.90625 169.957031 C 131.140625 168.964844 134.5625 168.558594 137.800781 167.699219 C 137.746094 167.652344 113.585938 169.75 109.683594 170.367188 C 109.492188 170.40625 109.648438 170.644531 109.703125 170.710938 C 110.6875 171.492188 112.148438 171.125 113.042969 172.023438 C 117.191406 175.964844 120.953125 180.308594 124.429688 184.847656 C 124.5 184.988281 124.332031 185.214844 124.207031 185.023438 C 123.34375 184.097656 115.78125 176.046875 112.539062 173.277344 C 112.257812 173.027344 111.9375 172.914062 111.566406 172.941406 C 109.191406 173.140625 106.824219 173.402344 104.457031 173.621094 C 104.363281 173.632812 104.234375 173.679688 104.199219 173.746094 C 104.167969 173.808594 104.199219 173.949219 104.257812 174.019531 C 108.347656 178.734375 111.453125 184.347656 112.21875 190.617188 C 113.121094 196.542969 111.660156 202.527344 108.964844 207.804688 C 108.859375 208.035156 108.742188 208.261719 108.640625 208.488281 C 108.574219 208.640625 108.667969 208.824219 108.8125 208.824219 C 149.347656 208.976562 189.886719 208.832031 230.421875 208.855469 C 230.875 208.855469 231.332031 208.835938 231.785156 208.824219 C 232.28125 208.667969 231.742188 208.113281 231.660156 207.824219 C 228.410156 201.542969 227.777344 194.246094 229.261719 187.3125 C 229.449219 186.4375 229.734375 185.804688 229.953125 185.222656 C 230.546875 183.609375 231.15625 181.996094 231.988281 180.480469 C 232.105469 180.273438 232 180.046875 231.792969 180.03125 C 229.671875 179.90625 227.542969 179.882812 225.414062 179.867188 C 221.765625 179.875 218.117188 179.917969 214.472656 179.933594 C 213.855469 179.9375 213 180.046875 212.699219 180.027344 C 209.304688 179.941406 205.917969 180.308594 202.53125 180.410156 C 195.703125 180.820312 188.902344 181.4375 182.125 182.410156 C 165.214844 184.613281 148.597656 188.890625 132.625 194.808594 C 128.796875 196.277344 124.898438 197.566406 121.152344 199.238281 C 120.976562 199.316406 120.804688 199.53125 120.882812 199.566406 C 124.613281 199.554688 181.183594 196.109375 193.992188 194.898438 C 202.375 194.105469 205.511719 193.082031 209.945312 185.921875 C 210.519531 184.964844 211.101562 184.015625 211.679688 183.066406 C 211.773438 182.910156 209.695312 187.617188 207.355469 191.128906 C 205.109375 194.828125 201.554688 197.871094 197.046875 197.957031 C 192.957031 198.226562 188.847656 198.242188 184.746094 198.371094 C 174.480469 198.910156 164.199219 199.164062 153.925781 199.578125 C 144.214844 200.152344 134.492188 200.328125 124.777344 200.785156 C 121.1875 200.964844 117.59375 201.183594 114.003906 201.335938 C 113.835938 201.3125 113.566406 201.347656 113.492188 201.160156 C 119.304688 196.640625 126.410156 193.355469 132.894531 189.683594 L 134.382812 188.859375 C 148.175781 181.617188 162.589844 175.332031 177.839844 171.921875 C 187.523438 169.734375 197.417969 168.695312 207.300781 167.863281 C 213.832031 167.316406 234.8125 167.722656 242.257812 168.613281 C 243.390625 168.773438 244.40625 168.679688 245.484375 168.164062 C 250.796875 165.632812 256.304688 164.992188 261.8125 165.789062 C 265.621094 166.292969 269.179688 167.574219 272.484375 169.539062 C 272.972656 169.828125 274.40625 170.71875 274.652344 170.917969 C 283.074219 176.871094 288.097656 187.378906 286.746094 197.695312 C 286.40625 200.535156 285.507812 203.214844 284.5625 205.886719 C 284.558594 205.953125 284.671875 206.089844 284.722656 206.085938 C 285.023438 206.066406 285.328125 206.046875 285.613281 205.96875 C 290.441406 204.617188 300.859375 200.707031 301.148438 200.195312 C 301.828125 198.929688 303.128906 198.320312 304.449219 197.96875 C 305.503906 197.632812 306.269531 197.523438 306.394531 196.203125 C 306.855469 194.125 307.316406 192.050781 307.769531 189.976562 C 307.84375 189.632812 307.765625 189.3125 307.511719 189.015625 Z M 298.253906 157.4375 C 298.800781 156.867188 299.363281 156.328125 299.574219 156.839844 C 300.085938 159.664062 301.417969 162.28125 302.285156 165.011719 C 302.410156 165.300781 302.386719 165.691406 302.054688 165.753906 C 301.375 165.886719 300.703125 166.144531 300.121094 165.957031 C 299.214844 165.511719 296.96875 159.128906 298.253906 157.4375 Z M 214.347656 153.328125 C 214.207031 153.34375 214.050781 153.410156 213.957031 153.515625 C 213.796875 153.6875 213.644531 153.757812 213.449219 153.617188 C 213.144531 153.40625 212.824219 153.355469 212.445312 153.40625 C 208.277344 153.949219 204.082031 154.179688 199.898438 154.554688 C 188.050781 155.640625 176.171875 156.304688 164.292969 156.824219 C 156.144531 156.988281 148 157.4375 139.851562 157.542969 C 138.480469 157.550781 131.753906 157.667969 131.363281 157.367188 C 132.835938 157.152344 134.394531 157.246094 135.894531 157.136719 C 136.855469 157.132812 137.847656 157.152344 138.664062 156.5625 C 141.878906 154.289062 145.472656 152.558594 148.613281 150.191406 C 148.472656 151.402344 148.722656 152.609375 148.863281 153.808594 C 149.214844 156.265625 149.042969 156.164062 151.582031 155.960938 C 153.320312 155.75 155.132812 155.617188 156.761719 154.914062 C 156.949219 154.820312 157.085938 154.648438 157.082031 154.4375 C 157.042969 153.222656 157 152.011719 156.945312 150.804688 C 156.878906 150.300781 156.921875 149.542969 156.300781 149.398438 C 154.117188 148.8125 151.898438 148.957031 149.695312 149.335938 C 149.953125 148.980469 150.378906 148.886719 150.746094 148.769531 C 155.988281 146.75 160.820312 143.808594 166.136719 141.953125 C 177.628906 137.382812 190.175781 135.160156 202.53125 136.164062 C 215.613281 137.046875 228.722656 139.195312 241.308594 142.914062 C 247.621094 144.976562 247.097656 146.976562 240.945312 148.667969 C 233.167969 150.734375 225.179688 151.914062 217.207031 152.9375 C 216.253906 153.0625 215.300781 153.191406 214.347656 153.328125 Z M 256.425781 149.890625 C 245.046875 150.527344 233.433594 152.78125 223.082031 157.648438 C 230.40625 155.964844 237.796875 153.945312 245.328125 153.0625 C 250.472656 152.464844 252.992188 152.546875 255.746094 152.460938 C 249.714844 152.65625 243.796875 153.578125 240.417969 154.222656 C 234.976562 155.179688 229.632812 156.558594 224.308594 157.976562 C 222.835938 158.339844 221.347656 158.644531 219.863281 158.960938 C 219.789062 158.980469 219.6875 158.90625 219.601562 158.871094 C 226.78125 154.535156 235.339844 152.628906 243.507812 150.898438 C 247.101562 150.347656 250.722656 149.800781 254.359375 149.636719 C 258.007812 149.640625 261.65625 149.664062 265.300781 149.6875 C 265.683594 149.703125 266.089844 149.644531 266.375 149.949219 C 263.0625 149.839844 259.742188 149.914062 256.425781 149.890625 Z M 306.730469 189.5 C 305.640625 190.828125 303.628906 196.132812 302.984375 197.035156 C 302.355469 197.820312 302.027344 197.714844 302.425781 196.722656 C 302.964844 195.382812 306.097656 187.925781 306.824219 189.261719 C 306.863281 189.328125 306.785156 189.441406 306.730469 189.5 Z M 306.730469 189.5 " fill-opacity="1" fill-rule="nonzero"/></g><g clip-path="url(#3f3628e6f9)"><path fill="#444444" d="M 108.273438 188.792969 C 101.007812 160.335938 59.78125 163.835938 57.078125 192.933594 C 55.757812 215.851562 83.363281 227.652344 100.191406 213.070312 C 107.042969 207.304688 110.351562 197.519531 108.273438 188.792969 Z M 63.375 199.652344 C 63.125 199.519531 62.945312 199.140625 62.660156 199.140625 C 62.429688 200.09375 63.058594 201.105469 63.09375 202.085938 C 62.722656 202.832031 61.96875 199.355469 61.9375 199.074219 C 61.085938 194.476562 61.582031 189.707031 63.734375 185.640625 C 63.789062 185.527344 63.890625 185.511719 63.949219 185.585938 C 64.015625 186.703125 63.519531 187.871094 63.355469 188.992188 C 62.917969 191.042969 62.976562 193.121094 63.359375 195.175781 C 63.527344 195.960938 63.460938 196.683594 62.777344 197.234375 C 62.746094 197.257812 62.730469 197.363281 62.75 197.375 C 63.0625 197.648438 64.949219 196.9375 65.496094 196.867188 C 69.394531 196 73.441406 194.84375 77.425781 194.984375 C 77.367188 195.058594 77.332031 195.179688 77.257812 195.203125 C 72.914062 196.578125 68.464844 197.554688 64.042969 198.644531 C 63.191406 198.707031 64.085938 199.902344 63.375 199.652344 Z M 65.121094 205.460938 C 65.070312 205.480469 64.976562 205.390625 64.90625 205.339844 C 68.175781 202.882812 72.0625 201.160156 75.835938 199.554688 C 75.980469 199.519531 76.140625 199.503906 76.238281 199.667969 C 73.519531 201.480469 70.578125 203.003906 67.652344 204.46875 C 66.839844 204.855469 65.972656 205.140625 65.121094 205.460938 Z M 68.355469 208.582031 C 68.070312 208.074219 68.632812 207.652344 69.0625 207.457031 C 69.375 207.339844 69.628906 207.535156 69.8125 207.777344 C 75.582031 214.085938 85.375 214.199219 92.773438 210.863281 C 93.070312 210.75 93.96875 210.105469 94.027344 210.632812 C 87.480469 216.796875 73.515625 216.164062 68.355469 208.582031 Z M 89.746094 195.464844 C 88.070312 194.667969 91.472656 194.972656 91.875 194.96875 C 93.871094 195.152344 98.789062 195.910156 100.101562 197.261719 C 100.042969 197.332031 99.582031 197.3125 99.84375 197.3125 C 96.1875 197.054688 92.917969 196.492188 89.746094 195.464844 Z M 99.878906 206.324219 C 99.492188 206.394531 99.261719 205.859375 99.023438 205.625 C 98.757812 205.125 99.214844 204.550781 99.601562 204.238281 C 99.703125 204.15625 99.777344 204.164062 99.863281 204.265625 C 100.097656 204.636719 100.539062 204.917969 100.558594 205.382812 C 100.402344 205.75 100.242188 206.117188 99.878906 206.324219 Z M 102.859375 201.027344 C 102.703125 201.589844 102.558594 202.410156 101.929688 202.605469 C 100.550781 201.695312 101.144531 201.183594 101.738281 200.003906 C 101.953125 199.574219 102.972656 200.753906 102.859375 201.027344 Z M 104.101562 197.074219 C 104.050781 197.414062 103.917969 197.75 103.8125 198.082031 C 103.636719 198.390625 103.28125 197.859375 103.089844 197.765625 C 102.226562 197.132812 102.710938 195.960938 102.667969 195.066406 C 102.640625 190.527344 101.230469 186.5 98.386719 182.984375 C 98.007812 182.515625 97.5625 182.097656 97.128906 181.667969 C 96.65625 181.242188 96.261719 181.992188 95.976562 182.304688 C 93.238281 185.820312 90.402344 189.253906 87.460938 192.605469 C 87.363281 192.71875 87.285156 192.703125 87.242188 192.566406 C 89.738281 188.195312 92.75 183.957031 95.59375 179.75 C 95.832031 179.414062 95.417969 179.109375 95.160156 178.945312 C 94.15625 178.351562 93.152344 177.765625 92.140625 177.191406 C 91.78125 176.988281 91.574219 177.042969 91.363281 177.351562 C 88.773438 181.378906 86.558594 185.722656 84.027344 189.742188 C 84.835938 185.460938 87.070312 181.367188 89.132812 177.5 C 89.234375 177.203125 89.621094 176.824219 89.300781 176.5625 C 85.085938 174.761719 80.21875 174.921875 75.960938 176.519531 C 75.316406 176.832031 76.3125 177.894531 76.453125 178.359375 C 78.550781 182.003906 80.335938 185.816406 81.570312 189.84375 C 81.535156 190.417969 81.113281 189.605469 80.996094 189.453125 C 78.582031 185.351562 76.21875 181.222656 73.773438 177.144531 C 73.199219 176 70.804688 178.804688 70.234375 179.265625 C 69.542969 179.96875 69.542969 180.054688 70.164062 180.90625 C 72.828125 184.664062 75.632812 188.320312 78.203125 192.140625 C 78.246094 192.273438 78.113281 192.503906 77.96875 192.308594 C 74.769531 189.125 71.925781 185.628906 68.980469 182.214844 C 68.800781 182.023438 68.550781 181.640625 68.261719 181.875 C 67.628906 182.601562 67.003906 183.328125 66.375 184.054688 C 65.925781 184.574219 65.457031 184.628906 64.765625 184.230469 C 64.421875 184.035156 65.585938 182.589844 65.738281 182.308594 C 78.734375 165.0625 106.363281 175.660156 104.101562 197.074219 Z M 104.101562 197.074219 " fill-opacity="1" fill-rule="nonzero"/></g><g clip-path="url(#24f5e32135)"><path fill="#444444" d="M 237.703125 178.554688 C 223.78125 194.96875 236.566406 219.859375 257.722656 219.453125 C 276.855469 220.210938 290.140625 198.003906 279.863281 181.683594 C 271.222656 166.566406 248.730469 164.761719 237.703125 178.554688 Z M 239.542969 201.691406 C 239.363281 202.023438 238.953125 202.769531 238.5 202.535156 C 238.160156 202.027344 237.929688 201.476562 237.824219 200.875 C 237.742188 200.597656 238.753906 200.101562 238.992188 200.070312 C 239.355469 200.355469 239.746094 201.261719 239.542969 201.691406 Z M 241.277344 205.992188 C 240.78125 206.886719 239.796875 205.644531 240.074219 205.105469 C 240.351562 204.867188 240.609375 204.457031 240.972656 204.382812 C 241.652344 204.726562 241.738281 205.417969 241.277344 205.992188 Z M 250.800781 195.441406 C 248.132812 196.226562 245.4375 196.863281 242.65625 197.109375 C 242.042969 197.175781 241.363281 197.320312 240.757812 197.320312 C 240.292969 197.085938 241.136719 196.820312 241.3125 196.699219 C 244.46875 195.515625 247.988281 194.660156 251.351562 195.007812 C 251.273438 195.273438 251.039062 195.371094 250.800781 195.441406 Z M 262.125 192.65625 C 262.101562 192.566406 262.023438 192.445312 262.058594 192.394531 C 262.386719 191.882812 262.722656 191.382812 263.074219 190.886719 C 265.339844 187.773438 267.53125 184.605469 269.738281 181.453125 C 270.359375 180.257812 271.535156 180.105469 270.183594 179.214844 C 269.597656 178.828125 267.28125 176.699219 266.738281 177.46875 C 264.027344 181.367188 261.78125 185.601562 259.117188 189.523438 C 258.953125 189.429688 259.058594 189.167969 259.085938 189.015625 C 260.476562 184.875 262.4375 180.976562 264.683594 177.242188 C 264.875 176.902344 264.792969 176.703125 264.410156 176.542969 C 260.328125 174.894531 255.769531 174.863281 251.640625 176.363281 C 251.4375 176.433594 251.097656 176.570312 251.148438 176.828125 C 253.1875 180.800781 255.171875 184.78125 256.367188 189.101562 C 256.390625 189.226562 256.433594 189.585938 256.273438 189.570312 C 253.742188 185.664062 251.726562 181.324219 249.367188 177.273438 C 249.1875 176.925781 248.878906 176.527344 248.449219 176.761719 C 247.199219 177.339844 246.066406 178.101562 244.992188 178.957031 C 244.800781 179.113281 244.765625 179.402344 244.921875 179.640625 C 245.386719 180.367188 245.84375 181.09375 246.324219 181.808594 C 248.605469 185.277344 251 188.675781 253.21875 192.183594 C 253.367188 192.417969 253.378906 192.636719 253.257812 192.582031 C 250.191406 189.566406 247.683594 185.921875 244.890625 182.625 C 244.484375 182.261719 244.050781 181.152344 243.445312 181.824219 C 239.535156 185.714844 237.625 191.371094 238.09375 196.796875 C 238.15625 197.476562 237.566406 197.996094 237.03125 198.3125 C 236.988281 198.335938 236.824219 198.238281 236.816406 198.175781 C 235.671875 192.492188 237.351562 186.402344 241.035156 181.953125 C 249.933594 170.515625 267.484375 170.972656 275.460938 183.167969 C 275.945312 183.902344 276.199219 184.378906 275.027344 184.308594 C 273.929688 184.53125 272.527344 180.988281 271.757812 181.949219 C 268.5625 185.523438 265.570312 189.355469 262.125 192.65625 Z M 275.414062 205.40625 C 271.753906 203.96875 267.941406 202.199219 264.785156 199.890625 C 264.921875 199.847656 264.921875 199.671875 265.203125 199.816406 C 267.582031 201.03125 270.140625 201.851562 272.472656 203.160156 C 273.519531 203.75 274.539062 204.402344 275.558594 205.046875 C 275.902344 205.265625 275.6875 205.527344 275.414062 205.40625 Z M 278.058594 201.3125 C 277.890625 201.617188 277.90625 202.148438 277.519531 202.246094 C 277.496094 202.152344 277.429688 202.046875 277.449219 201.96875 C 277.652344 201.035156 277.992188 200.125 277.980469 199.15625 C 277.8125 198.738281 277.3125 199.574219 277.070312 199.625 C 276.832031 199.234375 277.242188 198.863281 276.621094 198.695312 C 274.804688 198.25 272.980469 197.820312 271.167969 197.375 C 268.414062 196.703125 265.6875 195.960938 262.992188 195.101562 C 262.933594 195.082031 262.910156 194.945312 262.886719 194.855469 C 265.082031 194.765625 267.410156 195.363281 269.621094 195.695312 C 272.316406 196.121094 274.960938 196.867188 277.640625 197.308594 C 277.722656 197.304688 277.816406 197.171875 277.757812 197.09375 C 276.984375 196.242188 276.984375 196.023438 277.257812 194.914062 C 277.546875 193.824219 277.59375 192.71875 277.546875 191.601562 C 277.488281 190.285156 277.257812 188.992188 276.996094 187.703125 C 276.9375 187.054688 276.464844 186.070312 276.667969 185.496094 C 279.554688 190.128906 279.554688 196.453125 278.058594 201.3125 Z M 278.058594 201.3125 " fill-opacity="1" fill-rule="nonzero"/></g><path fill="#444444" d="M 199.074219 163.1875 C 202.769531 163.023438 203.660156 162.992188 205.742188 162.953125 C 206.878906 162.929688 206.792969 162.976562 207.453125 162.023438 C 207.589844 161.820312 207.859375 161.390625 207.484375 161.292969 C 205.511719 161.222656 203.542969 161.398438 201.578125 161.527344 C 200.824219 161.582031 200.066406 161.695312 199.3125 161.769531 C 198.867188 161.8125 198.558594 162.042969 198.371094 162.429688 C 197.933594 163.335938 198.261719 163.257812 199.074219 163.1875 Z M 199.074219 163.1875 " fill-opacity="1" fill-rule="nonzero"/><path fill="#444444" d="M 215.527344 138.0625 C 214.027344 137.601562 212.429688 137.59375 210.882812 137.367188 C 196.046875 135.503906 180.664062 136.429688 166.730469 142.1875 C 162.90625 143.671875 159.171875 145.351562 155.503906 147.183594 C 155.273438 147.328125 154.921875 147.398438 154.890625 147.714844 C 154.886719 147.738281 154.957031 147.796875 155 147.808594 C 155.539062 147.933594 156.085938 148.023438 156.617188 148.183594 C 157.894531 148.5625 157.980469 148.410156 158.019531 149.898438 C 158.058594 151.585938 157.964844 151.480469 159.625 151.425781 C 170.09375 150.96875 180.566406 150.644531 191.042969 150.570312 C 191.042969 150.589844 191.042969 150.613281 191.042969 150.628906 C 197.777344 150.734375 204.507812 150.78125 211.230469 151.09375 C 212.046875 151.105469 212.074219 150.054688 212.371094 149.496094 C 213.585938 146.007812 214.757812 142.5 215.605469 138.90625 C 215.667969 138.636719 215.792969 138.230469 215.527344 138.0625 Z M 215.527344 138.0625 " fill-opacity="1" fill-rule="nonzero"/><path fill="#444444" d="M 244.414062 145.109375 C 240.242188 142.65625 235.371094 141.882812 230.738281 140.714844 C 226.398438 139.757812 222.015625 138.84375 217.601562 138.34375 C 217.4375 138.332031 217.203125 138.511719 217.152344 138.6875 C 216.183594 142.800781 214.957031 146.8125 213.554688 150.761719 C 213.519531 150.882812 213.675781 151.050781 213.824219 151.050781 C 214.53125 151.035156 215.238281 151.015625 215.949219 150.988281 C 221.5625 150.765625 227.179688 150.488281 232.738281 149.566406 C 234.101562 149.316406 247.230469 147.351562 244.414062 145.109375 Z M 244.414062 145.109375 " fill-opacity="1" fill-rule="nonzero"/><g clip-path="url(#966902a5ee)"><g clip-path="url(#828e1487af)"><g clip-path="url(#a3112e370a)"><path fill="#ff3811" d="M 317.320312 180.414062 C 316.984375 174.265625 316.265625 168.214844 315.195312 162.300781 L 297.0625 158.023438 C 294.347656 146.964844 290.21875 136.496094 284.882812 126.804688 L 295.5 111.332031 C 289.015625 100.960938 281.265625 91.484375 272.484375 83.109375 L 255.035156 90.421875 C 246.574219 83.285156 237.199219 77.222656 227.113281 72.4375 L 226.597656 53.429688 C 215.46875 48.914062 203.671875 45.746094 191.425781 44.105469 L 181.519531 60.414062 C 176.070312 60.019531 170.535156 59.960938 164.9375 60.269531 C 159.335938 60.574219 153.839844 61.238281 148.464844 62.226562 L 136.835938 47.101562 C 124.84375 50.074219 113.460938 54.511719 102.894531 60.21875 L 104.464844 79.167969 C 94.964844 85.03125 86.308594 92.082031 78.679688 100.101562 L 60.53125 94.742188 C 52.722656 104.027344 46.058594 114.296875 40.757812 125.3125 L 52.996094 139.53125 C 48.75 149.746094 45.789062 160.605469 44.300781 171.898438 L 26.746094 178.132812 C 26.328125 184.128906 26.277344 190.21875 26.617188 196.371094 C 26.652344 197.015625 26.699219 197.660156 26.742188 198.300781 C 26.769531 198.945312 26.792969 199.585938 26.828125 200.230469 C 27.164062 206.382812 27.882812 212.433594 28.953125 218.347656 L 47.085938 222.625 C 49.800781 233.679688 53.929688 244.148438 59.265625 253.84375 L 48.652344 269.316406 C 55.136719 279.6875 62.886719 289.164062 71.664062 297.539062 L 89.117188 290.226562 C 97.574219 297.363281 106.953125 303.425781 117.035156 308.210938 L 117.550781 327.21875 C 128.679688 331.734375 140.476562 334.902344 152.726562 336.539062 L 162.628906 320.234375 C 168.078125 320.628906 173.613281 320.6875 179.214844 320.378906 C 184.8125 320.070312 190.308594 319.410156 195.683594 318.417969 L 207.3125 333.542969 C 219.304688 330.574219 230.6875 326.136719 241.253906 320.425781 L 239.683594 301.476562 C 249.183594 295.617188 257.839844 288.566406 265.46875 280.546875 L 283.617188 285.90625 C 291.425781 276.617188 298.089844 266.351562 303.390625 255.332031 L 291.152344 241.117188 C 295.398438 230.898438 298.359375 220.042969 299.847656 208.75 L 317.402344 202.515625 C 317.820312 196.519531 317.871094 190.425781 317.53125 184.273438 C 317.496094 183.628906 317.449219 182.988281 317.40625 182.347656 C 317.382812 181.703125 317.355469 181.0625 317.320312 180.414062 Z M 178.671875 310.535156 C 113.667969 314.101562 57.996094 264.761719 53.511719 200.023438 C 53.535156 200.019531 53.558594 200.015625 53.582031 200.011719 C 53.488281 198.960938 53.417969 197.898438 53.347656 196.839844 C 53.304688 195.78125 53.253906 194.71875 53.234375 193.664062 C 53.210938 193.664062 53.1875 193.660156 53.164062 193.660156 C 50.53125 128.820312 100.472656 73.683594 165.476562 70.113281 C 230.480469 66.546875 286.15625 115.886719 290.636719 180.625 C 290.613281 180.628906 290.589844 180.632812 290.566406 180.636719 C 290.660156 181.6875 290.730469 182.746094 290.800781 183.808594 C 290.84375 184.867188 290.894531 185.929688 290.914062 186.984375 C 290.9375 186.984375 290.960938 186.988281 290.984375 186.988281 C 293.617188 251.828125 243.675781 306.964844 178.671875 310.535156 Z M 178.671875 310.535156 " fill-opacity="1" fill-rule="nonzero"/></g></g></g><g fill="#444444" fill-opacity="1"><g transform="translate(38.960557, 249.679239)"><g><path d="M 15.0625 0 C 14.769531 0 14.546875 -0.144531 14.390625 -0.4375 L 10.265625 -9.5625 C 10.210938 -9.664062 10.132812 -9.71875 10.03125 -9.71875 L 6.96875 -9.71875 C 6.832031 -9.71875 6.765625 -9.648438 6.765625 -9.515625 L 6.765625 -0.5625 C 6.765625 -0.1875 6.578125 0 6.203125 0 L 2.609375 0 C 2.234375 0 2.046875 -0.1875 2.046875 -0.5625 L 2.046875 -22.9375 C 2.046875 -23.3125 2.234375 -23.5 2.609375 -23.5 L 12.03125 -23.5 C 13.46875 -23.5 14.726562 -23.203125 15.8125 -22.609375 C 16.894531 -22.023438 17.734375 -21.195312 18.328125 -20.125 C 18.921875 -19.050781 19.21875 -17.820312 19.21875 -16.4375 C 19.21875 -14.914062 18.835938 -13.601562 18.078125 -12.5 C 17.316406 -11.40625 16.265625 -10.632812 14.921875 -10.1875 C 14.859375 -10.164062 14.8125 -10.128906 14.78125 -10.078125 C 14.757812 -10.023438 14.773438 -9.972656 14.828125 -9.921875 L 19.25 -0.671875 C 19.3125 -0.578125 19.34375 -0.476562 19.34375 -0.375 C 19.34375 -0.257812 19.296875 -0.164062 19.203125 -0.09375 C 19.117188 -0.03125 19 0 18.84375 0 Z M 6.96875 -19.421875 C 6.832031 -19.421875 6.765625 -19.351562 6.765625 -19.21875 L 6.765625 -13.578125 C 6.765625 -13.441406 6.832031 -13.375 6.96875 -13.375 L 11.328125 -13.375 C 12.265625 -13.375 13.03125 -13.644531 13.625 -14.1875 C 14.21875 -14.738281 14.515625 -15.460938 14.515625 -16.359375 C 14.515625 -17.253906 14.21875 -17.988281 13.625 -18.5625 C 13.03125 -19.132812 12.265625 -19.421875 11.328125 -19.421875 Z M 6.96875 -19.421875 "/></g></g></g><g fill="#444444" fill-opacity="1"><g transform="translate(59.546253, 249.679239)"><g><path d="M 10.0625 -3.71875 C 11.53125 -3.789062 12.660156 -4.304688 13.453125 -5.265625 C 13.578125 -5.421875 13.71875 -5.5 13.875 -5.5 C 14.007812 -5.5 14.132812 -5.441406 14.25 -5.328125 L 16.15625 -3.484375 C 16.289062 -3.347656 16.359375 -3.210938 16.359375 -3.078125 C 16.359375 -2.921875 16.316406 -2.789062 16.234375 -2.6875 C 15.492188 -1.769531 14.546875 -1.046875 13.390625 -0.515625 C 12.242188 0.00390625 10.988281 0.265625 9.625 0.265625 C 7.5625 0.265625 5.851562 -0.257812 4.5 -1.3125 C 3.15625 -2.363281 2.25 -3.804688 1.78125 -5.640625 C 1.507812 -6.617188 1.375 -7.65625 1.375 -8.75 C 1.375 -10.050781 1.5 -11.144531 1.75 -12.03125 C 2.195312 -13.6875 3.09375 -15.015625 4.4375 -16.015625 C 5.789062 -17.023438 7.394531 -17.53125 9.25 -17.53125 C 11.445312 -17.53125 13.1875 -16.878906 14.46875 -15.578125 C 15.75 -14.285156 16.582031 -12.46875 16.96875 -10.125 C 17.050781 -9.382812 17.117188 -8.566406 17.171875 -7.671875 C 17.171875 -7.296875 16.976562 -7.109375 16.59375 -7.109375 L 6.296875 -7.109375 C 6.171875 -7.109375 6.109375 -7.039062 6.109375 -6.90625 C 6.171875 -6.4375 6.25 -6.09375 6.34375 -5.875 C 6.5625 -5.175781 7 -4.640625 7.65625 -4.265625 C 8.320312 -3.898438 9.125 -3.71875 10.0625 -3.71875 Z M 9.1875 -13.453125 C 8.46875 -13.453125 7.867188 -13.273438 7.390625 -12.921875 C 6.910156 -12.578125 6.582031 -12.09375 6.40625 -11.46875 C 6.289062 -11.039062 6.222656 -10.757812 6.203125 -10.625 C 6.179688 -10.488281 6.238281 -10.421875 6.375 -10.421875 L 12.078125 -10.421875 C 12.179688 -10.421875 12.234375 -10.46875 12.234375 -10.5625 C 12.234375 -10.8125 12.191406 -11.066406 12.109375 -11.328125 C 11.898438 -11.984375 11.550781 -12.5 11.0625 -12.875 C 10.570312 -13.257812 9.945312 -13.453125 9.1875 -13.453125 Z M 9.1875 -13.453125 "/></g></g></g><g fill="#444444" fill-opacity="1"><g transform="translate(77.885628, 249.679239)"><g><path d="M 6.671875 0 C 6.359375 0 6.144531 -0.15625 6.03125 -0.46875 L 0.84375 -16.59375 C 0.820312 -16.644531 0.8125 -16.710938 0.8125 -16.796875 C 0.8125 -16.929688 0.851562 -17.035156 0.9375 -17.109375 C 1.03125 -17.191406 1.15625 -17.234375 1.3125 -17.234375 L 5.265625 -17.234375 C 5.578125 -17.234375 5.789062 -17.066406 5.90625 -16.734375 L 8.578125 -6.671875 C 8.609375 -6.578125 8.65625 -6.53125 8.71875 -6.53125 C 8.78125 -6.53125 8.828125 -6.578125 8.859375 -6.671875 L 11.53125 -16.734375 C 11.644531 -17.066406 11.859375 -17.234375 12.171875 -17.234375 L 16.125 -17.203125 C 16.332031 -17.203125 16.476562 -17.140625 16.5625 -17.015625 C 16.65625 -16.890625 16.664062 -16.738281 16.59375 -16.5625 L 11.4375 -0.46875 C 11.320312 -0.15625 11.097656 0 10.765625 0 Z M 6.671875 0 "/></g></g></g><g fill="#444444" fill-opacity="1"><g transform="translate(95.319771, 249.679239)"><g><path d="M 4.359375 -18.875 C 3.503906 -18.875 2.804688 -19.132812 2.265625 -19.65625 C 1.734375 -20.1875 1.46875 -20.863281 1.46875 -21.6875 C 1.46875 -22.519531 1.734375 -23.195312 2.265625 -23.71875 C 2.804688 -24.25 3.503906 -24.515625 4.359375 -24.515625 C 5.234375 -24.515625 5.929688 -24.253906 6.453125 -23.734375 C 6.984375 -23.222656 7.25 -22.539062 7.25 -21.6875 C 7.25 -20.84375 6.984375 -20.160156 6.453125 -19.640625 C 5.929688 -19.128906 5.234375 -18.875 4.359375 -18.875 Z M 2.578125 0 C 2.203125 0 2.015625 -0.1875 2.015625 -0.5625 L 2.015625 -16.671875 C 2.015625 -17.046875 2.203125 -17.234375 2.578125 -17.234375 L 6.171875 -17.234375 C 6.546875 -17.234375 6.734375 -17.046875 6.734375 -16.671875 L 6.734375 -0.5625 C 6.734375 -0.1875 6.546875 0 6.171875 0 Z M 2.578125 0 "/></g></g></g><g fill="#444444" fill-opacity="1"><g transform="translate(104.036849, 249.679239)"><g><path d="M 6.671875 0 C 6.359375 0 6.144531 -0.15625 6.03125 -0.46875 L 0.84375 -16.59375 C 0.820312 -16.644531 0.8125 -16.710938 0.8125 -16.796875 C 0.8125 -16.929688 0.851562 -17.035156 0.9375 -17.109375 C 1.03125 -17.191406 1.15625 -17.234375 1.3125 -17.234375 L 5.265625 -17.234375 C 5.578125 -17.234375 5.789062 -17.066406 5.90625 -16.734375 L 8.578125 -6.671875 C 8.609375 -6.578125 8.65625 -6.53125 8.71875 -6.53125 C 8.78125 -6.53125 8.828125 -6.578125 8.859375 -6.671875 L 11.53125 -16.734375 C 11.644531 -17.066406 11.859375 -17.234375 12.171875 -17.234375 L 16.125 -17.203125 C 16.332031 -17.203125 16.476562 -17.140625 16.5625 -17.015625 C 16.65625 -16.890625 16.664062 -16.738281 16.59375 -16.5625 L 11.4375 -0.46875 C 11.320312 -0.15625 11.097656 0 10.765625 0 Z M 6.671875 0 "/></g></g></g><g fill="#444444" fill-opacity="1"><g transform="translate(121.470992, 249.679239)"><g><path d="M 10.0625 -3.71875 C 11.53125 -3.789062 12.660156 -4.304688 13.453125 -5.265625 C 13.578125 -5.421875 13.71875 -5.5 13.875 -5.5 C 14.007812 -5.5 14.132812 -5.441406 14.25 -5.328125 L 16.15625 -3.484375 C 16.289062 -3.347656 16.359375 -3.210938 16.359375 -3.078125 C 16.359375 -2.921875 16.316406 -2.789062 16.234375 -2.6875 C 15.492188 -1.769531 14.546875 -1.046875 13.390625 -0.515625 C 12.242188 0.00390625 10.988281 0.265625 9.625 0.265625 C 7.5625 0.265625 5.851562 -0.257812 4.5 -1.3125 C 3.15625 -2.363281 2.25 -3.804688 1.78125 -5.640625 C 1.507812 -6.617188 1.375 -7.65625 1.375 -8.75 C 1.375 -10.050781 1.5 -11.144531 1.75 -12.03125 C 2.195312 -13.6875 3.09375 -15.015625 4.4375 -16.015625 C 5.789062 -17.023438 7.394531 -17.53125 9.25 -17.53125 C 11.445312 -17.53125 13.1875 -16.878906 14.46875 -15.578125 C 15.75 -14.285156 16.582031 -12.46875 16.96875 -10.125 C 17.050781 -9.382812 17.117188 -8.566406 17.171875 -7.671875 C 17.171875 -7.296875 16.976562 -7.109375 16.59375 -7.109375 L 6.296875 -7.109375 C 6.171875 -7.109375 6.109375 -7.039062 6.109375 -6.90625 C 6.171875 -6.4375 6.25 -6.09375 6.34375 -5.875 C 6.5625 -5.175781 7 -4.640625 7.65625 -4.265625 C 8.320312 -3.898438 9.125 -3.71875 10.0625 -3.71875 Z M 9.1875 -13.453125 C 8.46875 -13.453125 7.867188 -13.273438 7.390625 -12.921875 C 6.910156 -12.578125 6.582031 -12.09375 6.40625 -11.46875 C 6.289062 -11.039062 6.222656 -10.757812 6.203125 -10.625 C 6.179688 -10.488281 6.238281 -10.421875 6.375 -10.421875 L 12.078125 -10.421875 C 12.179688 -10.421875 12.234375 -10.46875 12.234375 -10.5625 C 12.234375 -10.8125 12.191406 -11.066406 12.109375 -11.328125 C 11.898438 -11.984375 11.550781 -12.5 11.0625 -12.875 C 10.570312 -13.257812 9.945312 -13.453125 9.1875 -13.453125 Z M 9.1875 -13.453125 "/></g></g></g><g fill="#444444" fill-opacity="1"><g transform="translate(139.810367, 249.679239)"><g/></g></g><g fill="#444444" fill-opacity="1"><g transform="translate(146.515807, 249.679239)"><g><path d="M 17.140625 0 C 16.828125 0 16.613281 -0.15625 16.5 -0.46875 L 15.5625 -3.59375 C 15.539062 -3.695312 15.472656 -3.75 15.359375 -3.75 L 7.140625 -3.75 C 7.023438 -3.75 6.957031 -3.695312 6.9375 -3.59375 L 6 -0.46875 C 5.882812 -0.15625 5.671875 0 5.359375 0 L 1.46875 0 C 1.269531 0 1.125 -0.0625 1.03125 -0.1875 C 0.945312 -0.3125 0.9375 -0.460938 1 -0.640625 L 8.140625 -23 C 8.253906 -23.3125 8.46875 -23.46875 8.78125 -23.46875 L 13.71875 -23.46875 C 14.03125 -23.46875 14.238281 -23.3125 14.34375 -23 L 21.5 -0.640625 C 21.519531 -0.585938 21.53125 -0.519531 21.53125 -0.4375 C 21.53125 -0.300781 21.484375 -0.191406 21.390625 -0.109375 C 21.304688 -0.0351562 21.1875 0 21.03125 0 Z M 8.109375 -7.640625 C 8.085938 -7.484375 8.144531 -7.40625 8.28125 -7.40625 L 14.21875 -7.40625 C 14.351562 -7.40625 14.410156 -7.484375 14.390625 -7.640625 L 11.359375 -17.875 C 11.335938 -17.957031 11.300781 -18 11.25 -18 C 11.195312 -18 11.144531 -17.957031 11.09375 -17.875 Z M 8.109375 -7.640625 "/></g></g></g><g fill="#444444" fill-opacity="1"><g transform="translate(169.012561, 249.679239)"><g><path d="M 11.796875 -16.671875 C 11.796875 -17.046875 11.988281 -17.234375 12.375 -17.234375 L 15.953125 -17.234375 C 16.335938 -17.234375 16.53125 -17.046875 16.53125 -16.671875 L 16.53125 -0.5625 C 16.53125 -0.1875 16.335938 0 15.953125 0 L 12.375 0 C 11.988281 0 11.796875 -0.1875 11.796875 -0.5625 L 11.796875 -1.46875 C 11.796875 -1.5625 11.769531 -1.613281 11.71875 -1.625 C 11.664062 -1.632812 11.613281 -1.609375 11.5625 -1.546875 C 10.695312 -0.359375 9.320312 0.234375 7.4375 0.234375 C 5.738281 0.234375 4.34375 -0.273438 3.25 -1.296875 C 2.15625 -2.328125 1.609375 -3.773438 1.609375 -5.640625 L 1.609375 -16.671875 C 1.609375 -17.046875 1.796875 -17.234375 2.171875 -17.234375 L 5.734375 -17.234375 C 6.109375 -17.234375 6.296875 -17.046875 6.296875 -16.671875 L 6.296875 -6.8125 C 6.296875 -5.914062 6.535156 -5.1875 7.015625 -4.625 C 7.503906 -4.0625 8.171875 -3.78125 9.015625 -3.78125 C 9.773438 -3.78125 10.398438 -4.007812 10.890625 -4.46875 C 11.390625 -4.925781 11.691406 -5.523438 11.796875 -6.265625 Z M 11.796875 -16.671875 "/></g></g></g><g fill="#444444" fill-opacity="1"><g transform="translate(187.284879, 249.679239)"><g><path d="M 11.640625 -14.015625 C 11.640625 -13.640625 11.445312 -13.453125 11.0625 -13.453125 L 8.046875 -13.453125 C 7.910156 -13.453125 7.84375 -13.382812 7.84375 -13.25 L 7.84375 -6.296875 C 7.84375 -5.566406 7.992188 -5.023438 8.296875 -4.671875 C 8.597656 -4.328125 9.082031 -4.15625 9.75 -4.15625 L 10.703125 -4.15625 C 11.078125 -4.15625 11.265625 -3.96875 11.265625 -3.59375 L 11.265625 -0.703125 C 11.265625 -0.347656 11.078125 -0.144531 10.703125 -0.09375 C 9.847656 -0.0507812 9.234375 -0.03125 8.859375 -0.03125 C 6.992188 -0.03125 5.601562 -0.34375 4.6875 -0.96875 C 3.769531 -1.59375 3.300781 -2.753906 3.28125 -4.453125 L 3.28125 -13.25 C 3.28125 -13.382812 3.210938 -13.453125 3.078125 -13.453125 L 1.375 -13.453125 C 1 -13.453125 0.8125 -13.640625 0.8125 -14.015625 L 0.8125 -16.671875 C 0.8125 -17.046875 1 -17.234375 1.375 -17.234375 L 3.078125 -17.234375 C 3.210938 -17.234375 3.28125 -17.300781 3.28125 -17.4375 L 3.28125 -21.21875 C 3.28125 -21.601562 3.472656 -21.796875 3.859375 -21.796875 L 7.28125 -21.796875 C 7.65625 -21.796875 7.84375 -21.601562 7.84375 -21.21875 L 7.84375 -17.4375 C 7.84375 -17.300781 7.910156 -17.234375 8.046875 -17.234375 L 11.0625 -17.234375 C 11.445312 -17.234375 11.640625 -17.046875 11.640625 -16.671875 Z M 11.640625 -14.015625 "/></g></g></g><g fill="#444444" fill-opacity="1"><g transform="translate(200.02522, 249.679239)"><g><path d="M 9.390625 0.265625 C 7.484375 0.265625 5.859375 -0.222656 4.515625 -1.203125 C 3.179688 -2.191406 2.269531 -3.535156 1.78125 -5.234375 C 1.46875 -6.285156 1.3125 -7.425781 1.3125 -8.65625 C 1.3125 -10.019531 1.476562 -11.203125 1.8125 -12.203125 C 2.320312 -13.859375 3.242188 -15.15625 4.578125 -16.09375 C 5.910156 -17.03125 7.523438 -17.5 9.421875 -17.5 C 11.253906 -17.5 12.820312 -17.03125 14.125 -16.09375 C 15.4375 -15.15625 16.347656 -13.867188 16.859375 -12.234375 C 17.203125 -11.210938 17.375 -10.039062 17.375 -8.71875 C 17.375 -7.550781 17.226562 -6.421875 16.9375 -5.328125 C 16.414062 -3.585938 15.488281 -2.21875 14.15625 -1.21875 C 12.832031 -0.226562 11.242188 0.265625 9.390625 0.265625 Z M 9.390625 -3.78125 C 10.109375 -3.78125 10.722656 -4.003906 11.234375 -4.453125 C 11.742188 -4.898438 12.113281 -5.515625 12.34375 -6.296875 C 12.519531 -6.898438 12.609375 -7.6875 12.609375 -8.65625 C 12.609375 -9.59375 12.519531 -10.382812 12.34375 -11.03125 C 12.113281 -11.789062 11.742188 -12.382812 11.234375 -12.8125 C 10.722656 -13.238281 10.085938 -13.453125 9.328125 -13.453125 C 8.585938 -13.453125 7.957031 -13.238281 7.4375 -12.8125 C 6.925781 -12.382812 6.5625 -11.789062 6.34375 -11.03125 C 6.15625 -10.382812 6.0625 -9.59375 6.0625 -8.65625 C 6.0625 -7.738281 6.15625 -6.953125 6.34375 -6.296875 C 6.5625 -5.515625 6.929688 -4.898438 7.453125 -4.453125 C 7.984375 -4.003906 8.628906 -3.78125 9.390625 -3.78125 Z M 9.390625 -3.78125 "/></g></g></g><g fill="#444444" fill-opacity="1"><g transform="translate(218.699871, 249.679239)"><g><path d="M 7.171875 0 C 6.816406 0 6.601562 -0.164062 6.53125 -0.5 L 0.640625 -22.828125 C 0.617188 -22.878906 0.609375 -22.9375 0.609375 -23 C 0.609375 -23.3125 0.785156 -23.46875 1.140625 -23.46875 L 4.96875 -23.46875 C 5.300781 -23.46875 5.5 -23.300781 5.5625 -22.96875 L 8.71875 -9.59375 C 8.738281 -9.5 8.78125 -9.453125 8.84375 -9.453125 C 8.914062 -9.453125 8.960938 -9.5 8.984375 -9.59375 L 12 -22.96875 C 12.070312 -23.300781 12.273438 -23.46875 12.609375 -23.46875 L 16.390625 -23.46875 C 16.753906 -23.46875 16.96875 -23.300781 17.03125 -22.96875 L 20.3125 -9.59375 C 20.34375 -9.5 20.382812 -9.453125 20.4375 -9.453125 C 20.488281 -9.453125 20.523438 -9.5 20.546875 -9.59375 L 23.578125 -22.96875 C 23.640625 -23.300781 23.835938 -23.46875 24.171875 -23.46875 L 27.828125 -23.46875 C 28.023438 -23.46875 28.164062 -23.40625 28.25 -23.28125 C 28.332031 -23.164062 28.347656 -23.015625 28.296875 -22.828125 L 22.90625 -0.5 C 22.832031 -0.164062 22.617188 0 22.265625 0 L 18.578125 0 C 18.222656 0 18.007812 -0.164062 17.9375 -0.5 L 14.59375 -14.75 C 14.5625 -14.84375 14.507812 -14.890625 14.4375 -14.890625 C 14.375 -14.890625 14.332031 -14.84375 14.3125 -14.75 L 11.203125 -0.5 C 11.128906 -0.164062 10.925781 0 10.59375 0 Z M 7.171875 0 "/></g></g></g><g fill="#444444" fill-opacity="1"><g transform="translate(247.633848, 249.679239)"><g><path d="M 9.390625 0.265625 C 7.484375 0.265625 5.859375 -0.222656 4.515625 -1.203125 C 3.179688 -2.191406 2.269531 -3.535156 1.78125 -5.234375 C 1.46875 -6.285156 1.3125 -7.425781 1.3125 -8.65625 C 1.3125 -10.019531 1.476562 -11.203125 1.8125 -12.203125 C 2.320312 -13.859375 3.242188 -15.15625 4.578125 -16.09375 C 5.910156 -17.03125 7.523438 -17.5 9.421875 -17.5 C 11.253906 -17.5 12.820312 -17.03125 14.125 -16.09375 C 15.4375 -15.15625 16.347656 -13.867188 16.859375 -12.234375 C 17.203125 -11.210938 17.375 -10.039062 17.375 -8.71875 C 17.375 -7.550781 17.226562 -6.421875 16.9375 -5.328125 C 16.414062 -3.585938 15.488281 -2.21875 14.15625 -1.21875 C 12.832031 -0.226562 11.242188 0.265625 9.390625 0.265625 Z M 9.390625 -3.78125 C 10.109375 -3.78125 10.722656 -4.003906 11.234375 -4.453125 C 11.742188 -4.898438 12.113281 -5.515625 12.34375 -6.296875 C 12.519531 -6.898438 12.609375 -7.6875 12.609375 -8.65625 C 12.609375 -9.59375 12.519531 -10.382812 12.34375 -11.03125 C 12.113281 -11.789062 11.742188 -12.382812 11.234375 -12.8125 C 10.722656 -13.238281 10.085938 -13.453125 9.328125 -13.453125 C 8.585938 -13.453125 7.957031 -13.238281 7.4375 -12.8125 C 6.925781 -12.382812 6.5625 -11.789062 6.34375 -11.03125 C 6.15625 -10.382812 6.0625 -9.59375 6.0625 -8.65625 C 6.0625 -7.738281 6.15625 -6.953125 6.34375 -6.296875 C 6.5625 -5.515625 6.929688 -4.898438 7.453125 -4.453125 C 7.984375 -4.003906 8.628906 -3.78125 9.390625 -3.78125 Z M 9.390625 -3.78125 "/></g></g></g><g fill="#444444" fill-opacity="1"><g transform="translate(266.308485, 249.679239)"><g><path d="M 10.328125 -17.46875 C 11.046875 -17.46875 11.640625 -17.332031 12.109375 -17.0625 C 12.367188 -16.925781 12.46875 -16.691406 12.40625 -16.359375 L 11.765625 -12.84375 C 11.742188 -12.644531 11.679688 -12.519531 11.578125 -12.46875 C 11.484375 -12.425781 11.320312 -12.425781 11.09375 -12.46875 C 10.738281 -12.5625 10.414062 -12.609375 10.125 -12.609375 C 9.96875 -12.609375 9.710938 -12.585938 9.359375 -12.546875 C 8.546875 -12.472656 7.859375 -12.171875 7.296875 -11.640625 C 6.742188 -11.117188 6.46875 -10.425781 6.46875 -9.5625 L 6.46875 -0.5625 C 6.46875 -0.1875 6.28125 0 5.90625 0 L 2.3125 0 C 1.9375 0 1.75 -0.1875 1.75 -0.5625 L 1.75 -16.671875 C 1.75 -17.046875 1.9375 -17.234375 2.3125 -17.234375 L 5.90625 -17.234375 C 6.28125 -17.234375 6.46875 -17.046875 6.46875 -16.671875 L 6.46875 -15.625 C 6.46875 -15.53125 6.488281 -15.472656 6.53125 -15.453125 C 6.582031 -15.429688 6.640625 -15.457031 6.703125 -15.53125 C 7.597656 -16.820312 8.804688 -17.46875 10.328125 -17.46875 Z M 10.328125 -17.46875 "/></g></g></g><g fill="#444444" fill-opacity="1"><g transform="translate(279.14942, 249.679239)"><g><path d="M 2.3125 0 C 1.9375 0 1.75 -0.1875 1.75 -0.5625 L 1.75 -22.90625 C 1.75 -23.28125 1.9375 -23.46875 2.3125 -23.46875 L 5.90625 -23.46875 C 6.28125 -23.46875 6.46875 -23.28125 6.46875 -22.90625 L 6.46875 -11.84375 C 6.46875 -11.75 6.492188 -11.695312 6.546875 -11.6875 C 6.609375 -11.675781 6.660156 -11.703125 6.703125 -11.765625 L 11.171875 -16.90625 C 11.390625 -17.125 11.625 -17.234375 11.875 -17.234375 L 15.921875 -17.234375 C 16.078125 -17.234375 16.203125 -17.203125 16.296875 -17.140625 C 16.390625 -17.085938 16.4375 -17.007812 16.4375 -16.90625 C 16.4375 -16.769531 16.390625 -16.644531 16.296875 -16.53125 L 12.171875 -11.359375 C 12.109375 -11.296875 12.097656 -11.207031 12.140625 -11.09375 L 17.0625 -0.671875 L 17.140625 -0.40625 C 17.140625 -0.132812 16.96875 0 16.625 0 L 12.84375 0 C 12.53125 0 12.304688 -0.144531 12.171875 -0.4375 L 8.921875 -8.109375 C 8.847656 -8.242188 8.757812 -8.253906 8.65625 -8.140625 L 6.578125 -5.5 C 6.503906 -5.40625 6.46875 -5.328125 6.46875 -5.265625 L 6.46875 -0.5625 C 6.46875 -0.1875 6.28125 0 5.90625 0 Z M 2.3125 0 "/></g></g></g><g fill="#444444" fill-opacity="1"><g transform="translate(297.019405, 249.679239)"><g><path d="M 8.625 0.234375 C 7.125 0.234375 5.8125 0.0195312 4.6875 -0.40625 C 3.570312 -0.832031 2.710938 -1.421875 2.109375 -2.171875 C 1.503906 -2.929688 1.203125 -3.796875 1.203125 -4.765625 L 1.203125 -4.921875 C 1.203125 -5.304688 1.394531 -5.5 1.78125 -5.5 L 5.15625 -5.5 C 5.539062 -5.5 5.734375 -5.429688 5.734375 -5.296875 L 5.734375 -5.0625 C 5.734375 -4.570312 6 -4.148438 6.53125 -3.796875 C 7.070312 -3.453125 7.753906 -3.28125 8.578125 -3.28125 C 9.335938 -3.28125 9.953125 -3.425781 10.421875 -3.71875 C 10.890625 -4.007812 11.125 -4.390625 11.125 -4.859375 C 11.125 -5.265625 10.921875 -5.566406 10.515625 -5.765625 C 10.117188 -5.960938 9.460938 -6.175781 8.546875 -6.40625 C 7.453125 -6.695312 6.640625 -6.953125 6.109375 -7.171875 C 4.648438 -7.660156 3.492188 -8.265625 2.640625 -8.984375 C 1.796875 -9.703125 1.375 -10.734375 1.375 -12.078125 C 1.375 -13.722656 2.019531 -15.03125 3.3125 -16 C 4.613281 -16.976562 6.316406 -17.46875 8.421875 -17.46875 C 9.847656 -17.46875 11.101562 -17.238281 12.1875 -16.78125 C 13.269531 -16.320312 14.109375 -15.675781 14.703125 -14.84375 C 15.296875 -14.019531 15.59375 -13.082031 15.59375 -12.03125 C 15.59375 -11.925781 15.539062 -11.832031 15.4375 -11.75 C 15.34375 -11.675781 15.203125 -11.640625 15.015625 -11.640625 L 11.734375 -11.640625 C 11.359375 -11.640625 11.171875 -11.707031 11.171875 -11.84375 L 11.171875 -12.03125 C 11.171875 -12.53125 10.921875 -12.945312 10.421875 -13.28125 C 9.929688 -13.613281 9.273438 -13.78125 8.453125 -13.78125 C 7.710938 -13.78125 7.101562 -13.644531 6.625 -13.375 C 6.144531 -13.113281 5.90625 -12.742188 5.90625 -12.265625 C 5.90625 -11.828125 6.132812 -11.492188 6.59375 -11.265625 C 7.050781 -11.046875 7.804688 -10.8125 8.859375 -10.5625 C 9.503906 -10.425781 10.128906 -10.257812 10.734375 -10.0625 C 12.335938 -9.59375 13.597656 -8.988281 14.515625 -8.25 C 15.429688 -7.507812 15.890625 -6.4375 15.890625 -5.03125 C 15.890625 -3.375 15.226562 -2.082031 13.90625 -1.15625 C 12.59375 -0.226562 10.832031 0.234375 8.625 0.234375 Z M 8.625 0.234375 "/></g></g></g><g fill="#444444" fill-opacity="1"><g transform="translate(150.525375, 271.550088)"><g><path d="M 4 0.109375 C 3.3125 0.109375 2.707031 0.0078125 2.1875 -0.1875 C 1.664062 -0.382812 1.265625 -0.660156 0.984375 -1.015625 C 0.703125 -1.367188 0.5625 -1.769531 0.5625 -2.21875 L 0.5625 -2.296875 C 0.5625 -2.472656 0.648438 -2.5625 0.828125 -2.5625 L 2.40625 -2.5625 C 2.582031 -2.5625 2.671875 -2.53125 2.671875 -2.46875 L 2.671875 -2.359375 C 2.671875 -2.128906 2.796875 -1.929688 3.046875 -1.765625 C 3.296875 -1.609375 3.609375 -1.53125 3.984375 -1.53125 C 4.335938 -1.53125 4.625 -1.597656 4.84375 -1.734375 C 5.0625 -1.867188 5.171875 -2.046875 5.171875 -2.265625 C 5.171875 -2.453125 5.078125 -2.59375 4.890625 -2.6875 C 4.703125 -2.78125 4.394531 -2.878906 3.96875 -2.984375 C 3.46875 -3.117188 3.09375 -3.238281 2.84375 -3.34375 C 2.164062 -3.570312 1.628906 -3.847656 1.234375 -4.171875 C 0.835938 -4.503906 0.640625 -4.984375 0.640625 -5.609375 C 0.640625 -6.378906 0.941406 -6.988281 1.546875 -7.4375 C 2.148438 -7.894531 2.9375 -8.125 3.90625 -8.125 C 4.570312 -8.125 5.15625 -8.015625 5.65625 -7.796875 C 6.164062 -7.585938 6.554688 -7.289062 6.828125 -6.90625 C 7.109375 -6.519531 7.25 -6.082031 7.25 -5.59375 C 7.25 -5.539062 7.222656 -5.492188 7.171875 -5.453125 C 7.128906 -5.421875 7.066406 -5.40625 6.984375 -5.40625 L 5.453125 -5.40625 C 5.273438 -5.40625 5.1875 -5.4375 5.1875 -5.5 L 5.1875 -5.59375 C 5.1875 -5.820312 5.070312 -6.015625 4.84375 -6.171875 C 4.613281 -6.328125 4.304688 -6.40625 3.921875 -6.40625 C 3.585938 -6.40625 3.304688 -6.34375 3.078125 -6.21875 C 2.859375 -6.09375 2.75 -5.921875 2.75 -5.703125 C 2.75 -5.492188 2.851562 -5.335938 3.0625 -5.234375 C 3.28125 -5.128906 3.628906 -5.019531 4.109375 -4.90625 C 4.410156 -4.84375 4.703125 -4.765625 4.984375 -4.671875 C 5.734375 -4.453125 6.320312 -4.171875 6.75 -3.828125 C 7.175781 -3.492188 7.390625 -3 7.390625 -2.34375 C 7.390625 -1.570312 7.082031 -0.96875 6.46875 -0.53125 C 5.851562 -0.101562 5.03125 0.109375 4 0.109375 Z M 4 0.109375 "/></g></g></g><g fill="#444444" fill-opacity="1"><g transform="translate(158.433019, 271.550088)"><g><path d="M 4.671875 -1.734375 C 5.359375 -1.765625 5.882812 -2.003906 6.25 -2.453125 C 6.3125 -2.523438 6.378906 -2.5625 6.453125 -2.5625 C 6.515625 -2.5625 6.570312 -2.535156 6.625 -2.484375 L 7.515625 -1.625 C 7.578125 -1.5625 7.609375 -1.5 7.609375 -1.4375 C 7.609375 -1.363281 7.585938 -1.300781 7.546875 -1.25 C 7.203125 -0.820312 6.757812 -0.484375 6.21875 -0.234375 C 5.6875 0.00390625 5.101562 0.125 4.46875 0.125 C 3.519531 0.125 2.726562 -0.117188 2.09375 -0.609375 C 1.46875 -1.097656 1.046875 -1.769531 0.828125 -2.625 C 0.703125 -3.082031 0.640625 -3.5625 0.640625 -4.0625 C 0.640625 -4.664062 0.695312 -5.175781 0.8125 -5.59375 C 1.019531 -6.363281 1.4375 -6.984375 2.0625 -7.453125 C 2.695312 -7.921875 3.441406 -8.15625 4.296875 -8.15625 C 5.316406 -8.15625 6.125 -7.851562 6.71875 -7.25 C 7.320312 -6.644531 7.710938 -5.796875 7.890625 -4.703125 C 7.929688 -4.359375 7.960938 -3.984375 7.984375 -3.578125 C 7.984375 -3.398438 7.894531 -3.3125 7.71875 -3.3125 L 2.9375 -3.3125 C 2.875 -3.3125 2.84375 -3.28125 2.84375 -3.21875 C 2.875 -3 2.910156 -2.835938 2.953125 -2.734375 C 3.054688 -2.410156 3.257812 -2.160156 3.5625 -1.984375 C 3.863281 -1.816406 4.234375 -1.734375 4.671875 -1.734375 Z M 4.265625 -6.25 C 3.941406 -6.25 3.664062 -6.164062 3.4375 -6 C 3.21875 -5.84375 3.066406 -5.617188 2.984375 -5.328125 C 2.929688 -5.128906 2.898438 -5 2.890625 -4.9375 C 2.878906 -4.875 2.90625 -4.84375 2.96875 -4.84375 L 5.609375 -4.84375 C 5.660156 -4.84375 5.6875 -4.863281 5.6875 -4.90625 C 5.6875 -5.019531 5.664062 -5.140625 5.625 -5.265625 C 5.53125 -5.566406 5.367188 -5.804688 5.140625 -5.984375 C 4.910156 -6.160156 4.617188 -6.25 4.265625 -6.25 Z M 4.265625 -6.25 "/></g></g></g><g fill="#444444" fill-opacity="1"><g transform="translate(167.026923, 271.550088)"><g><path d="M 4.796875 -8.125 C 5.128906 -8.125 5.40625 -8.0625 5.625 -7.9375 C 5.75 -7.875 5.796875 -7.765625 5.765625 -7.609375 L 5.46875 -5.96875 C 5.457031 -5.875 5.425781 -5.816406 5.375 -5.796875 C 5.332031 -5.773438 5.257812 -5.773438 5.15625 -5.796875 C 4.988281 -5.835938 4.835938 -5.859375 4.703125 -5.859375 C 4.628906 -5.859375 4.507812 -5.847656 4.34375 -5.828125 C 3.976562 -5.796875 3.664062 -5.65625 3.40625 -5.40625 C 3.144531 -5.164062 3.015625 -4.84375 3.015625 -4.4375 L 3.015625 -0.265625 C 3.015625 -0.0859375 2.925781 0 2.75 0 L 1.078125 0 C 0.898438 0 0.8125 -0.0859375 0.8125 -0.265625 L 0.8125 -7.75 C 0.8125 -7.925781 0.898438 -8.015625 1.078125 -8.015625 L 2.75 -8.015625 C 2.925781 -8.015625 3.015625 -7.925781 3.015625 -7.75 L 3.015625 -7.265625 C 3.015625 -7.222656 3.023438 -7.195312 3.046875 -7.1875 C 3.066406 -7.175781 3.09375 -7.1875 3.125 -7.21875 C 3.539062 -7.820312 4.097656 -8.125 4.796875 -8.125 Z M 4.796875 -8.125 "/></g></g></g><g fill="#444444" fill-opacity="1"><g transform="translate(173.062945, 271.550088)"><g><path d="M 3.109375 0 C 2.960938 0 2.863281 -0.0703125 2.8125 -0.21875 L 0.390625 -7.71875 C 0.378906 -7.738281 0.375 -7.769531 0.375 -7.8125 C 0.375 -7.875 0.394531 -7.921875 0.4375 -7.953125 C 0.476562 -7.992188 0.535156 -8.015625 0.609375 -8.015625 L 2.453125 -8.015625 C 2.597656 -8.015625 2.695312 -7.9375 2.75 -7.78125 L 3.984375 -3.109375 C 3.992188 -3.066406 4.015625 -3.046875 4.046875 -3.046875 C 4.078125 -3.046875 4.097656 -3.066406 4.109375 -3.109375 L 5.359375 -7.78125 C 5.410156 -7.9375 5.507812 -8.015625 5.65625 -8.015625 L 7.5 -8 C 7.59375 -8 7.660156 -7.96875 7.703125 -7.90625 C 7.742188 -7.851562 7.75 -7.785156 7.71875 -7.703125 L 5.3125 -0.21875 C 5.257812 -0.0703125 5.15625 0 5 0 Z M 3.109375 0 "/></g></g></g><g fill="#444444" fill-opacity="1"><g transform="translate(181.235732, 271.550088)"><g><path d="M 2.03125 -8.78125 C 1.632812 -8.78125 1.3125 -8.898438 1.0625 -9.140625 C 0.8125 -9.390625 0.6875 -9.707031 0.6875 -10.09375 C 0.6875 -10.476562 0.8125 -10.789062 1.0625 -11.03125 C 1.3125 -11.28125 1.632812 -11.40625 2.03125 -11.40625 C 2.4375 -11.40625 2.757812 -11.285156 3 -11.046875 C 3.25 -10.804688 3.375 -10.488281 3.375 -10.09375 C 3.375 -9.695312 3.25 -9.378906 3 -9.140625 C 2.757812 -8.898438 2.4375 -8.78125 2.03125 -8.78125 Z M 1.203125 0 C 1.023438 0 0.9375 -0.0859375 0.9375 -0.265625 L 0.9375 -7.75 C 0.9375 -7.925781 1.023438 -8.015625 1.203125 -8.015625 L 2.875 -8.015625 C 3.050781 -8.015625 3.140625 -7.925781 3.140625 -7.75 L 3.140625 -0.265625 C 3.140625 -0.0859375 3.050781 0 2.875 0 Z M 1.203125 0 "/></g></g></g><g fill="#444444" fill-opacity="1"><g transform="translate(185.353341, 271.550088)"><g><path d="M 4.328125 0.125 C 3.503906 0.125 2.785156 -0.0820312 2.171875 -0.5 C 1.566406 -0.914062 1.132812 -1.488281 0.875 -2.21875 C 0.695312 -2.738281 0.609375 -3.347656 0.609375 -4.046875 C 0.609375 -4.742188 0.695312 -5.347656 0.875 -5.859375 C 1.125 -6.566406 1.554688 -7.125 2.171875 -7.53125 C 2.785156 -7.9375 3.503906 -8.140625 4.328125 -8.140625 C 5.160156 -8.140625 5.890625 -7.929688 6.515625 -7.515625 C 7.148438 -7.097656 7.570312 -6.570312 7.78125 -5.9375 C 7.84375 -5.789062 7.882812 -5.628906 7.90625 -5.453125 L 7.90625 -5.421875 C 7.90625 -5.285156 7.828125 -5.203125 7.671875 -5.171875 L 6.03125 -4.921875 L 5.953125 -4.90625 C 5.828125 -4.90625 5.753906 -4.96875 5.734375 -5.09375 L 5.6875 -5.3125 C 5.613281 -5.582031 5.453125 -5.804688 5.203125 -5.984375 C 4.953125 -6.160156 4.65625 -6.25 4.3125 -6.25 C 3.988281 -6.25 3.710938 -6.164062 3.484375 -6 C 3.253906 -5.832031 3.09375 -5.601562 3 -5.3125 C 2.882812 -5 2.828125 -4.570312 2.828125 -4.03125 C 2.828125 -3.5 2.878906 -3.078125 2.984375 -2.765625 C 3.078125 -2.453125 3.238281 -2.207031 3.46875 -2.03125 C 3.707031 -1.851562 3.988281 -1.765625 4.3125 -1.765625 C 4.632812 -1.765625 4.914062 -1.847656 5.15625 -2.015625 C 5.40625 -2.191406 5.578125 -2.425781 5.671875 -2.71875 L 5.6875 -2.796875 C 5.695312 -2.835938 5.734375 -2.882812 5.796875 -2.9375 C 5.859375 -3 5.925781 -3.023438 6 -3.015625 L 7.640625 -2.765625 C 7.722656 -2.742188 7.78125 -2.707031 7.8125 -2.65625 C 7.851562 -2.601562 7.867188 -2.539062 7.859375 -2.46875 C 7.835938 -2.300781 7.8125 -2.179688 7.78125 -2.109375 C 7.5625 -1.410156 7.132812 -0.863281 6.5 -0.46875 C 5.875 -0.0703125 5.148438 0.125 4.328125 0.125 Z M 4.328125 0.125 "/></g></g></g><g fill="#444444" fill-opacity="1"><g transform="translate(193.791272, 271.550088)"><g><path d="M 4.671875 -1.734375 C 5.359375 -1.765625 5.882812 -2.003906 6.25 -2.453125 C 6.3125 -2.523438 6.378906 -2.5625 6.453125 -2.5625 C 6.515625 -2.5625 6.570312 -2.535156 6.625 -2.484375 L 7.515625 -1.625 C 7.578125 -1.5625 7.609375 -1.5 7.609375 -1.4375 C 7.609375 -1.363281 7.585938 -1.300781 7.546875 -1.25 C 7.203125 -0.820312 6.757812 -0.484375 6.21875 -0.234375 C 5.6875 0.00390625 5.101562 0.125 4.46875 0.125 C 3.519531 0.125 2.726562 -0.117188 2.09375 -0.609375 C 1.46875 -1.097656 1.046875 -1.769531 0.828125 -2.625 C 0.703125 -3.082031 0.640625 -3.5625 0.640625 -4.0625 C 0.640625 -4.664062 0.695312 -5.175781 0.8125 -5.59375 C 1.019531 -6.363281 1.4375 -6.984375 2.0625 -7.453125 C 2.695312 -7.921875 3.441406 -8.15625 4.296875 -8.15625 C 5.316406 -8.15625 6.125 -7.851562 6.71875 -7.25 C 7.320312 -6.644531 7.710938 -5.796875 7.890625 -4.703125 C 7.929688 -4.359375 7.960938 -3.984375 7.984375 -3.578125 C 7.984375 -3.398438 7.894531 -3.3125 7.71875 -3.3125 L 2.9375 -3.3125 C 2.875 -3.3125 2.84375 -3.28125 2.84375 -3.21875 C 2.875 -3 2.910156 -2.835938 2.953125 -2.734375 C 3.054688 -2.410156 3.257812 -2.160156 3.5625 -1.984375 C 3.863281 -1.816406 4.234375 -1.734375 4.671875 -1.734375 Z M 4.265625 -6.25 C 3.941406 -6.25 3.664062 -6.164062 3.4375 -6 C 3.21875 -5.84375 3.066406 -5.617188 2.984375 -5.328125 C 2.929688 -5.128906 2.898438 -5 2.890625 -4.9375 C 2.878906 -4.875 2.90625 -4.84375 2.96875 -4.84375 L 5.609375 -4.84375 C 5.660156 -4.84375 5.6875 -4.863281 5.6875 -4.90625 C 5.6875 -5.019531 5.664062 -5.140625 5.625 -5.265625 C 5.53125 -5.566406 5.367188 -5.804688 5.140625 -5.984375 C 4.910156 -6.160156 4.617188 -6.25 4.265625 -6.25 Z M 4.265625 -6.25 "/></g></g></g></svg>